<?xml version="1.0" encoding="UTF-8"?>
<svg width="801px" height="517px" viewBox="0 0 801 517" version="1.1" xmlns="http://www.w3.org/2000/svg" xmlns:xlink="http://www.w3.org/1999/xlink">
    <!-- Generator: Sketch 55 (78076) - https://sketchapp.com -->
    <title>player-and-device@1x</title>
    <desc>Created with Sketch.</desc>
    <defs>
        <rect id="path-1" x="0" y="0" width="110" height="65" rx="5"></rect>
        <filter x="-6.4%" y="-7.7%" width="112.7%" height="121.5%" filterUnits="objectBoundingBox" id="filter-2">
            <feOffset dx="0" dy="2" in="SourceAlpha" result="shadowOffsetOuter1"></feOffset>
            <feGaussianBlur stdDeviation="2" in="shadowOffsetOuter1" result="shadowBlurOuter1"></feGaussianBlur>
            <feComposite in="shadowBlurOuter1" in2="SourceAlpha" operator="out" result="shadowBlurOuter1"></feComposite>
            <feColorMatrix values="0 0 0 0 0   0 0 0 0 0   0 0 0 0 0  0 0 0 0.151988636 0" type="matrix" in="shadowBlurOuter1"></feColorMatrix>
        </filter>
        <rect id="path-3" x="0" y="0" width="110" height="65" rx="5"></rect>
        <filter x="-6.4%" y="-7.7%" width="112.7%" height="121.5%" filterUnits="objectBoundingBox" id="filter-4">
            <feOffset dx="0" dy="2" in="SourceAlpha" result="shadowOffsetOuter1"></feOffset>
            <feGaussianBlur stdDeviation="2" in="shadowOffsetOuter1" result="shadowBlurOuter1"></feGaussianBlur>
            <feComposite in="shadowBlurOuter1" in2="SourceAlpha" operator="out" result="shadowBlurOuter1"></feComposite>
            <feColorMatrix values="0 0 0 0 0   0 0 0 0 0   0 0 0 0 0  0 0 0 0.151988636 0" type="matrix" in="shadowBlurOuter1"></feColorMatrix>
        </filter>
        <rect id="path-5" x="0" y="0" width="110" height="65" rx="5"></rect>
        <filter x="-6.4%" y="-7.7%" width="112.7%" height="121.5%" filterUnits="objectBoundingBox" id="filter-6">
            <feOffset dx="0" dy="2" in="SourceAlpha" result="shadowOffsetOuter1"></feOffset>
            <feGaussianBlur stdDeviation="2" in="shadowOffsetOuter1" result="shadowBlurOuter1"></feGaussianBlur>
            <feComposite in="shadowBlurOuter1" in2="SourceAlpha" operator="out" result="shadowBlurOuter1"></feComposite>
            <feColorMatrix values="0 0 0 0 0   0 0 0 0 0   0 0 0 0 0  0 0 0 0.151988636 0" type="matrix" in="shadowBlurOuter1"></feColorMatrix>
        </filter>
        <rect id="path-7" x="0" y="0" width="110" height="65" rx="5"></rect>
        <filter x="-6.4%" y="-7.7%" width="112.7%" height="121.5%" filterUnits="objectBoundingBox" id="filter-8">
            <feOffset dx="0" dy="2" in="SourceAlpha" result="shadowOffsetOuter1"></feOffset>
            <feGaussianBlur stdDeviation="2" in="shadowOffsetOuter1" result="shadowBlurOuter1"></feGaussianBlur>
            <feComposite in="shadowBlurOuter1" in2="SourceAlpha" operator="out" result="shadowBlurOuter1"></feComposite>
            <feColorMatrix values="0 0 0 0 0   0 0 0 0 0   0 0 0 0 0  0 0 0 0.151988636 0" type="matrix" in="shadowBlurOuter1"></feColorMatrix>
        </filter>
    </defs>
    <g id="Designs" stroke="none" stroke-width="1" fill="none" fill-rule="evenodd">
        <g id="Product" transform="translate(-405.000000, -2942.000000)">
            <g id="player-and-device" transform="translate(420.000000, 2942.000000)">
                <g id="Illustrations/ipad" transform="translate(0.000000, 39.000000)">
                    <rect id="Rectangle" fill="#CCECFF" fill-rule="evenodd" x="0" y="1" width="600" height="400" rx="8"></rect>
                    <rect id="Rectangle" fill="#24DC89" fill-rule="evenodd" x="0" y="0" width="573" height="40"></rect>
                    <rect id="Rectangle" stroke="#FFFFFF" stroke-width="15" stroke-linejoin="round" x="-7.5" y="-6.5" width="615" height="415" rx="8"></rect>
                    <rect id="Rectangle" fill="#FFFFFF" fill-rule="evenodd" x="573" y="1" width="30" height="400"></rect>
                    <circle id="Oval" fill="#E9E9E9" fill-rule="evenodd" cx="593" cy="197" r="12"></circle>
                    <rect id="Rectangle" fill="#FFFFFF" fill-rule="evenodd" x="46" y="13" width="78" height="14"></rect>
                    <rect id="Rectangle" fill="#FFFFFF" fill-rule="evenodd" x="518" y="18" width="20" height="5"></rect>
                    <rect id="Rectangle" fill="#FFFFFF" fill-rule="evenodd" x="488" y="18" width="20" height="5"></rect>
                    <rect id="Rectangle" fill="#FFFFFF" fill-rule="evenodd" x="458" y="18" width="20" height="5"></rect>
                    <rect id="Rectangle" fill="#FFFFFF" fill-rule="evenodd" x="296" y="71" width="20" height="5"></rect>
                    <rect id="Rectangle" fill="#FFFFFF" fill-rule="evenodd" x="326" y="71" width="20" height="5"></rect>
                    <rect id="Rectangle" fill="#FFFFFF" fill-rule="evenodd" x="266" y="71" width="20" height="5"></rect>
                    <rect id="Rectangle" fill="#FFFFFF" fill-rule="evenodd" x="266" y="89" width="272" height="186"></rect>
                    <rect id="Rectangle" fill="#FFFFFF" fill-rule="evenodd" x="266" y="289" width="129" height="90"></rect>
                    <rect id="Rectangle" fill="#FFFFFF" fill-rule="evenodd" x="409" y="289" width="129" height="90"></rect>
                    <rect id="Rectangle" fill="#FFFFFF" fill-rule="evenodd" x="46" y="89" width="200" height="290"></rect>
                    <rect id="Rectangle" fill="#9B9B9B" fill-rule="evenodd" opacity="0.499000186" x="56" y="106" width="80" height="5"></rect>
                    <rect id="Rectangle" fill="#E87C7C" fill-rule="evenodd" opacity="0.800130208" x="206" y="106" width="30" height="5"></rect>
                    <rect id="Rectangle" fill="#7CB8E8" fill-rule="evenodd" opacity="0.800130208" x="206" y="126" width="30" height="5"></rect>
                    <rect id="Rectangle" fill="#7CE8AF" fill-rule="evenodd" opacity="0.800130208" x="206" y="146" width="30" height="5"></rect>
                    <rect id="Rectangle" fill="#7CE8AF" fill-rule="evenodd" opacity="0.800130208" x="206" y="166" width="30" height="5"></rect>
                    <rect id="Rectangle" fill="#7CE8AF" fill-rule="evenodd" opacity="0.800130208" x="206" y="186" width="30" height="5"></rect>
                    <rect id="Rectangle" fill="#E87C7C" fill-rule="evenodd" opacity="0.800130208" x="206" y="206" width="30" height="5"></rect>
                    <rect id="Rectangle" fill="#7CE8AF" fill-rule="evenodd" opacity="0.800130208" x="206" y="226" width="30" height="5"></rect>
                    <rect id="Rectangle" fill="#7CE8AF" fill-rule="evenodd" opacity="0.800130208" x="206" y="246" width="30" height="5"></rect>
                    <rect id="Rectangle" fill="#7CE8AF" fill-rule="evenodd" opacity="0.800130208" x="206" y="266" width="30" height="5"></rect>
                    <rect id="Rectangle" fill="#7CE8AF" fill-rule="evenodd" opacity="0.800130208" x="206" y="286" width="30" height="5"></rect>
                    <rect id="Rectangle" fill="#E87C7C" fill-rule="evenodd" opacity="0.800130208" x="206" y="306" width="30" height="5"></rect>
                    <rect id="Rectangle" fill="#96C6ED" fill-rule="evenodd" x="206" y="326" width="30" height="5"></rect>
                    <rect id="Rectangle" fill="#7CE8AF" fill-rule="evenodd" opacity="0.800130208" x="206" y="346" width="30" height="5"></rect>
                    <rect id="Rectangle" fill="#9B9B9B" fill-rule="evenodd" opacity="0.499000186" x="56" y="126" width="100" height="5"></rect>
                    <rect id="Rectangle" fill="#9B9B9B" fill-rule="evenodd" opacity="0.499000186" x="56" y="146" width="90" height="5"></rect>
                    <rect id="Rectangle" fill="#9B9B9B" fill-rule="evenodd" opacity="0.499000186" x="56" y="166" width="70" height="5"></rect>
                    <rect id="Rectangle" fill="#9B9B9B" fill-rule="evenodd" opacity="0.499000186" x="56" y="186" width="100" height="5"></rect>
                    <rect id="Rectangle" fill="#9B9B9B" fill-rule="evenodd" opacity="0.499000186" x="56" y="206" width="80" height="5"></rect>
                    <rect id="Rectangle" fill="#9B9B9B" fill-rule="evenodd" opacity="0.499000186" x="56" y="226" width="90" height="5"></rect>
                    <rect id="Rectangle" fill="#9B9B9B" fill-rule="evenodd" opacity="0.499000186" x="56" y="246" width="60" height="5"></rect>
                    <g id="Group-3" opacity="0.752836682" stroke-width="1" fill-rule="evenodd" transform="translate(429.000000, 313.000000)" fill="#9B9B9B">
                        <rect id="Rectangle" opacity="0.499000186" x="0" y="0" width="90" height="3" rx="1.5"></rect>
                        <rect id="Rectangle" opacity="0.499000186" x="0" y="20" width="90" height="3" rx="1.5"></rect>
                        <rect id="Rectangle" opacity="0.499000186" x="0" y="40" width="90" height="3" rx="1.5"></rect>
                    </g>
                    <rect id="Rectangle" fill="#9B9B9B" fill-rule="evenodd" opacity="0.499000186" x="56" y="266" width="100" height="5"></rect>
                    <rect id="Rectangle" fill="#9B9B9B" fill-rule="evenodd" opacity="0.499000186" x="56" y="286" width="90" height="5"></rect>
                    <rect id="Rectangle" fill="#9B9B9B" fill-rule="evenodd" opacity="0.499000186" x="56" y="306" width="90" height="5"></rect>
                    <rect id="Rectangle" fill="#9B9B9B" fill-rule="evenodd" opacity="0.499000186" x="56" y="326" width="60" height="5"></rect>
                    <rect id="Rectangle" fill="#9B9B9B" fill-rule="evenodd" opacity="0.499000186" x="56" y="346" width="100" height="5"></rect>
                    <g id="Icons/pitch" transform="translate(412.000000, 111.000000)">
                        <g id="Rectangle">
                            <use fill="black" fill-opacity="1" filter="url(#filter-2)" xlink:href="#path-1"></use>
                            <rect stroke="#FFFFFF" stroke-width="3" stroke-linejoin="square" fill="#24DC89" fill-rule="evenodd" x="1.5" y="1.5" width="107" height="62" rx="5"></rect>
                        </g>
                        <rect id="Rectangle" fill="#FFFFFF" fill-rule="evenodd" x="54" y="0" width="3" height="65"></rect>
                        <circle id="Oval" stroke="#FFFFFF" stroke-width="3" cx="55.5" cy="32.5" r="12.5"></circle>
                        <path d="M1.5,19.5 L1.5,46.5 L10,46.5 C11.9329966,46.5 13.5,44.9329966 13.5,43 L13.5,23 C13.5,21.0670034 11.9329966,19.5 10,19.5 L1.5,19.5 Z" id="Rectangle" stroke="#FFFFFF" stroke-width="3"></path>
                        <path d="M108.5,46.5 L108.5,19.5 L100,19.5 C98.0670034,19.5 96.5,21.0670034 96.5,23 L96.5,43 C96.5,44.9329966 98.0670034,46.5 100,46.5 L108.5,46.5 Z" id="Rectangle" stroke="#FFFFFF" stroke-width="3"></path>
                    </g>
                    <g id="Icons/pitch" transform="translate(282.000000, 111.000000)">
                        <g id="Rectangle">
                            <use fill="black" fill-opacity="1" filter="url(#filter-4)" xlink:href="#path-3"></use>
                            <rect stroke="#FFFFFF" stroke-width="3" stroke-linejoin="square" fill="#24DC89" fill-rule="evenodd" x="1.5" y="1.5" width="107" height="62" rx="5"></rect>
                        </g>
                        <rect id="Rectangle" fill="#FFFFFF" fill-rule="evenodd" x="54" y="0" width="3" height="65"></rect>
                        <circle id="Oval" stroke="#FFFFFF" stroke-width="3" cx="55.5" cy="32.5" r="12.5"></circle>
                        <path d="M1.5,19.5 L1.5,46.5 L10,46.5 C11.9329966,46.5 13.5,44.9329966 13.5,43 L13.5,23 C13.5,21.0670034 11.9329966,19.5 10,19.5 L1.5,19.5 Z" id="Rectangle" stroke="#FFFFFF" stroke-width="3"></path>
                        <path d="M108.5,46.5 L108.5,19.5 L100,19.5 C98.0670034,19.5 96.5,21.0670034 96.5,23 L96.5,43 C96.5,44.9329966 98.0670034,46.5 100,46.5 L108.5,46.5 Z" id="Rectangle" stroke="#FFFFFF" stroke-width="3"></path>
                    </g>
                    <g id="Icons/pitch" transform="translate(412.000000, 191.000000)">
                        <g id="Rectangle">
                            <use fill="black" fill-opacity="1" filter="url(#filter-6)" xlink:href="#path-5"></use>
                            <rect stroke="#FFFFFF" stroke-width="3" stroke-linejoin="square" fill="#24DC89" fill-rule="evenodd" x="1.5" y="1.5" width="107" height="62" rx="5"></rect>
                        </g>
                        <rect id="Rectangle" fill="#FFFFFF" fill-rule="evenodd" x="54" y="0" width="3" height="65"></rect>
                        <circle id="Oval" stroke="#FFFFFF" stroke-width="3" cx="55.5" cy="32.5" r="12.5"></circle>
                        <path d="M1.5,19.5 L1.5,46.5 L10,46.5 C11.9329966,46.5 13.5,44.9329966 13.5,43 L13.5,23 C13.5,21.0670034 11.9329966,19.5 10,19.5 L1.5,19.5 Z" id="Rectangle" stroke="#FFFFFF" stroke-width="3"></path>
                        <path d="M108.5,46.5 L108.5,19.5 L100,19.5 C98.0670034,19.5 96.5,21.0670034 96.5,23 L96.5,43 C96.5,44.9329966 98.0670034,46.5 100,46.5 L108.5,46.5 Z" id="Rectangle" stroke="#FFFFFF" stroke-width="3"></path>
                    </g>
                    <g id="Icons/pitch" transform="translate(282.000000, 191.000000)">
                        <g id="Rectangle">
                            <use fill="black" fill-opacity="1" filter="url(#filter-8)" xlink:href="#path-7"></use>
                            <rect stroke="#FFFFFF" stroke-width="3" stroke-linejoin="square" fill="#24DC89" fill-rule="evenodd" x="1.5" y="1.5" width="107" height="62" rx="5"></rect>
                        </g>
                        <rect id="Rectangle" fill="#FFFFFF" fill-rule="evenodd" x="54" y="0" width="3" height="65"></rect>
                        <circle id="Oval" stroke="#FFFFFF" stroke-width="3" cx="55.5" cy="32.5" r="12.5"></circle>
                        <path d="M1.5,19.5 L1.5,46.5 L10,46.5 C11.9329966,46.5 13.5,44.9329966 13.5,43 L13.5,23 C13.5,21.0670034 11.9329966,19.5 10,19.5 L1.5,19.5 Z" id="Rectangle" stroke="#FFFFFF" stroke-width="3"></path>
                        <path d="M108.5,46.5 L108.5,19.5 L100,19.5 C98.0670034,19.5 96.5,21.0670034 96.5,23 L96.5,43 C96.5,44.9329966 98.0670034,46.5 100,46.5 L108.5,46.5 Z" id="Rectangle" stroke="#FFFFFF" stroke-width="3"></path>
                    </g>
                    <rect id="Rectangle" fill="#7CB8E8" fill-rule="evenodd" x="487" y="59" width="51" height="18" rx="3"></rect>
                    <rect id="Rectangle" fill="#24DC89" fill-rule="evenodd" x="46" y="59" width="51" height="18" rx="3"></rect>
                    <rect id="Rectangle" fill="#F48F56" fill-rule="evenodd" opacity="0.748302641" x="279" y="314" width="3" height="55" rx="1.5"></rect>
                    <rect id="Rectangle" fill="#7CE8AF" fill-rule="evenodd" opacity="0.748302641" x="299" y="304" width="3" height="65" rx="1.5"></rect>
                    <rect id="Rectangle" fill="#E8CD7C" fill-rule="evenodd" opacity="0.748302641" x="319" y="324" width="3" height="45" rx="1.5"></rect>
                    <rect id="Rectangle" fill="#7CD4E8" fill-rule="evenodd" opacity="0.748302641" x="339" y="314" width="3" height="55" rx="1.5"></rect>
                    <rect id="Rectangle" fill="#7CE8AF" fill-rule="evenodd" opacity="0.748302641" x="359" y="334" width="3" height="35" rx="1.5"></rect>
                    <rect id="Rectangle" fill="#E87E7C" fill-rule="evenodd" opacity="0.748302641" x="379" y="314" width="3" height="55" rx="1.5"></rect>
                </g>
                <g id="Illustrations/rugby-player" transform="translate(381.000000, 0.000000)">
                    <g id="Rugby-player" stroke-width="1" fill-rule="evenodd">
                        <g id="Group" opacity="0.5" transform="translate(201.006442, 343.040000)" fill="#EA9B82" fill-rule="nonzero">
                            <path d="M48.77,5.99 C48.49,7.57 48.21,9.12 47.92,10.64 C44.26,29.78 39.53,44.83 33.5,48.74 C32.940995,49.1175717 32.3223207,49.3981726 31.67,49.57 C31.5356024,49.6095362 31.3986004,49.6396098 31.26,49.66 C30.8320121,49.7435268 30.3944824,49.7670861 29.96,49.73 C25.5241693,49.4650306 21.1478082,48.5762926 16.96,47.09 C6.83,43.24 5.96,36.9 5.96,36.9 L3.03,16.7 L2.01,9.19 L1.18,3.46 L0.73,0.36 C2.98281738,3.89703976 5.48940333,7.26589127 8.23,10.44 C13.35,16.38 20.41,22 28.17,20.87 C31.5694598,20.2073763 34.759374,18.7358998 37.47,16.58 C41.6438911,13.5113192 45.4372941,9.95626276 48.77,5.99 Z" id="Path"></path>
                        </g>
                        <path d="M179.606442,374.71 C179.856442,393.71 170.946442,415.48 159.376442,430.28 C157.796442,432.28 155.926442,434.28 153.466442,435.07 C145.386442,437.6 142.466442,424.28 141.466442,418.88 C141.246442,417.61 141.066442,416.34 140.946442,415.06 C140.312313,408.174015 140.922022,401.230112 142.746442,394.56 C142.956442,393.73 143.196442,392.91 143.446442,392.1 C145.186442,386.44 147.166442,380.71 148.706442,374.9 C150.107092,369.886005 150.968637,364.736847 151.276442,359.54 C151.536442,353.48 152.886442,346.81 157.346442,342.38 C160.426442,339.32 165.756442,336.99 170.236442,337.63 C170.64316,337.686993 171.044509,337.777296 171.436442,337.9 C174.299167,338.887191 176.524915,341.172292 177.436442,344.06 C178.576442,347.18 178.646442,350.63 178.926442,353.9 C179.526442,360.81 179.536442,367.77 179.606442,374.71 Z" id="Path" fill="#F4FAFA" fill-rule="nonzero"></path>
                        <path d="M178.046442,345.29 C173.346442,342.7 167.136442,344.29 163.276442,348.03 C159.416442,351.77 157.576442,357.12 156.816442,362.43 C156.390678,364.707843 156.431502,367.04839 156.936442,369.31 C157.806442,372.57 160.166442,375.2 162.636442,377.5 C164.336442,379.09 166.246442,380.64 168.546442,381.02 C172.706442,381.71 176.446442,378.34 178.686442,374.77" id="Path" fill="#D9EAE6" fill-rule="nonzero"></path>
                        <path d="M71.9864423,466.17 C70.3864423,471.57 69.9364423,480.43 69.4664423,489.67 C69.2364423,493.92 69.0064423,498.26 68.6564423,502.38 C68.6517638,502.399726 68.6517638,502.420274 68.6564423,502.44 C68.6614053,502.529932 68.6614053,502.620068 68.6564423,502.71 C68.5564423,503.87 68.4364423,505.02 68.3164423,506.14 L68.2264423,506.94 C67.9364423,509.37 67.5864423,511.67 67.1464423,513.76 C67.0564423,514.23 66.9564423,514.68 66.8464423,515.13 C66.2392704,515.369667 65.6093912,515.54724 64.9664423,515.66 C64.1455641,515.800999 63.3177049,515.897805 62.4864423,515.95 C60.6164423,516.09 58.7564423,516.17 56.8764423,516.19 L56.2064423,516.19 C50.360463,516.237742 44.5234863,515.722025 38.7764423,514.65 L37.9764423,514.49 L37.9764423,514.27 C37.9764423,514.15 37.9764423,514.03 37.9764423,513.9 C37.9764423,513.57 37.8864423,513.24 37.8564423,512.9 C37.8264423,512.56 37.7464423,512.04 37.7064423,511.6 C37.7064423,511.4 37.6564423,511.19 37.6364423,510.98 C37.6164423,510.77 37.5564423,510.29 37.5264423,509.98 C37.3864423,508.51 37.2564423,506.98 37.1664423,505.51 C36.3764423,493.44 37.1664423,480.44 40.3964423,471.33 C42.7464423,464.8 45.0164423,458.22 47.8264423,451.88 C49.1664423,448.88 50.3564423,445.64 52.4464423,443.06 C54.5364423,440.48 57.8064423,438.64 61.2964423,439.31 C65.7464423,440.17 70.0264423,444.11 71.9364423,448 C74.6064423,453.61 73.7164423,460.36 71.9864423,466.17 Z" id="Path" fill="#F4FAFA" fill-rule="nonzero"></path>
                        <path d="M63.9264423,477.5 L52.3264423,483.03 C52.0684783,483.120503 51.8495412,483.297065 51.7064423,483.53 C51.3964423,484.17 52.2864423,484.69 52.9764423,484.86 C56.0864423,485.63 59.1664423,486.55 62.1964423,487.62 C62.5817808,487.722282 62.9291601,487.934183 63.1964423,488.23 C63.5196978,488.794148 63.4120012,489.506603 62.9364423,489.95 C62.46298,490.370718 61.8980684,490.675428 61.2864423,490.84 L51.7364423,494.23 C51.1364423,494.44 50.4264423,494.81 50.4564423,495.45 C50.5266597,495.866457 50.7749594,496.231604 51.1364423,496.45 C53.8429522,498.580793 56.9170703,500.197501 60.2064423,501.22 C60.5249029,501.310651 60.7778444,501.55306 60.8819502,501.86738 C60.986056,502.181699 60.9278266,502.527171 60.7264423,502.79 L60.7264423,502.79 C60.5198917,503.073755 60.1873169,503.238174 59.8364423,503.23 L50.7564423,502.92 C49.9864423,502.92 49.0064423,502.71 48.8364423,501.92 C48.6664423,501.13 49.4064423,500.6 50.0664423,500.25 C52.3906479,499.026348 54.8956265,498.182353 57.4864423,497.75 C59.02477,497.612486 60.5308105,497.227534 61.9464423,496.61 C62.3332212,496.434053 62.5665724,496.03289 62.5283051,495.609699 C62.4900377,495.186507 62.1885095,494.833711 61.7764423,494.73 C58.6559832,493.654516 55.5979054,492.405912 52.6164423,490.99 C51.8264423,490.62 50.9164423,489.99 51.1164423,489.12 C51.2364423,488.6 51.7464423,488.28 52.2164423,488.03 C54.6620853,486.743531 57.2450959,485.737163 59.9164423,485.03 C60.9164423,484.77 62.1364423,484.21 61.9964423,483.2 C61.8349691,482.647746 61.4509243,482.187617 60.9364423,481.93 L52.6064423,476.16" id="Path" stroke="#D9EAE6"></path>
                        <path d="M50.6064423,451.59 C48.8208674,454.917952 47.658443,458.544174 47.1764423,462.29 C46.6786127,466.075541 47.3779634,469.92197 49.1764423,473.29 C49.8064243,474.494193 50.7234632,475.524574 51.8464423,476.29 C53.2051743,477.017676 54.7073275,477.437596 56.2464423,477.52 C58.7864423,477.81 61.4364423,477.97 63.7964423,476.96 C67.4264423,475.42 69.5664423,471.41 70.4164423,467.42 C71.2664423,463.43 71.1364423,459.29 71.7164423,455.24" id="Path" fill="#D9EAE6" fill-rule="nonzero"></path>
                        <path d="M204.546442,231.84 C204.546442,231.84 198.226442,240.44 188.696442,253.52 L188.696442,253.52 C179.756442,265.81 167.976442,282.07 155.976442,298.86 C139.296442,322.23 122.166442,346.57 111.606442,362.79 C110.196442,364.95 108.896442,366.97 107.726442,368.79 C104.136442,374.49 101.796442,378.61 101.206442,380.51 C96.8264423,394.51 78.4564423,428.93 75.8264423,441.76 C74.4164423,448.66 71.9964423,457.83 70.0564423,464.84 C68.5450644,470.309611 63.2263552,473.822515 57.6024787,473.0656 C51.9786022,472.308685 47.7779301,467.514573 47.7664423,461.84 C47.7664423,461.5 47.7664423,461.16 47.8164423,460.84 C49.2564423,444.57 52.2764423,411.94 54.8164423,392.84 C57.0264423,376.28 66.3164423,367.14 74.6364423,353.72 C76.3839693,350.914171 77.9860839,348.020351 79.4364423,345.05 C82.7732405,338.171627 85.1842092,330.881557 86.6064423,323.37 C89.1264423,310.55 96.3364423,292.67 104.526442,275.03 C119.096442,243.69 136.776442,213.12 136.776442,213.12 L138.776442,213.12 L198.306442,230.07 L204.546442,231.84 Z" id="Path" fill="#F3A384" fill-rule="nonzero"></path>
                        <path d="M260.416442,242.57 C260.186442,245.26 259.016442,270.15 256.256442,298.92 C254.666442,315.5 252.546442,333.38 249.776442,349.03 C249.496442,350.61 249.216442,352.16 248.926442,353.68 C245.266442,372.82 240.536442,387.87 234.506442,391.78 C233.947437,392.157572 233.328763,392.438173 232.676442,392.61 C232.542045,392.649536 232.405043,392.67961 232.266442,392.7 C231.838454,392.783527 231.400925,392.807086 230.966442,392.77 C226.530612,392.505031 222.15425,391.616293 217.966442,390.13 C207.836442,386.28 206.966442,379.94 206.966442,379.94 L204.036442,359.74 L203.016442,352.23 L202.186442,346.5 L201.736442,343.4 L196.956442,310.46 L188.696442,253.53 L188.696442,253.53 L198.316442,230.07 L201.206442,223.07 C201.206442,223.07 261.006442,235.86 260.416442,242.57 Z" id="Path" fill="#F3A384" fill-rule="nonzero"></path>
                        <path d="M260.076442,239.11 C259.956442,241.94 259.786442,245.78 259.566442,250.32 C259.416442,253.47 259.236442,256.97 259.036442,260.69 C258.386442,272.26 257.486442,286.06 256.256442,298.92 C235.741699,295.133748 214.554204,299.256913 196.956442,310.46 L190.106442,283.64 L188.736442,278.23 L185.336442,264.93 C182.598313,268.641532 179.611451,272.162956 176.396442,275.47 C174.526442,277.47 172.626442,279.33 170.666442,281.37 C165.31691,286.79699 160.404932,292.638533 155.976442,298.84 C142.802336,284.182739 124.195979,275.566275 104.496442,275 C112.706442,257.34 121.906442,239.93 128.366442,228.09 C129.366442,226.22 130.366442,224.5 131.196442,222.93 C132.026442,221.36 132.856442,219.93 133.546442,218.73 L191.226442,228.01 L198.316442,230.01 L198.656442,229.19 L260.076442,239.11 Z" id="Path" fill="#2D3A35" fill-rule="nonzero"></path>
                        <path d="M260.076442,239.11 C259.956442,241.94 259.786442,245.78 259.566442,250.32 C259.416442,253.47 259.236442,256.97 259.036442,260.69 C242.036442,264.08 206.226442,272.24 190.106442,283.69 L188.736442,278.23 L185.336442,264.93 C182.598313,268.641532 179.611451,272.162956 176.396442,275.47 C174.526442,277.47 172.626442,279.33 170.666442,281.37 C170.586442,280.52 170.506442,279.64 170.416442,278.73 C166.506442,237.53 131.336442,222.93 131.336442,222.93 L131.196442,222.93 C132.066442,221.36 132.856442,219.93 133.546442,218.73 L191.226442,228.01 L198.656442,229.21 L260.076442,239.11 Z" id="Path" fill="#242E2A" fill-rule="nonzero"></path>
                        <path d="M232.776442,392.81 L232.256442,392.72 C230.626442,392.46 225.256442,391.56 218.016442,390.15 C197.076442,386.03 161.016442,377.52 159.206442,367.41 C156.576442,353.12 174.666442,347.58 174.666442,347.58 L201.316442,346.58 L202.186442,346.58 L203.336442,348.04 L231.336442,390.48 L232.696442,392.71 L232.776442,392.81 Z" id="Path" fill="#CD7454" fill-rule="nonzero"></path>
                        <path d="M72.3264423,509.91 C72.3514071,510.189444 72.3514071,510.470556 72.3264423,510.75 C72.2451779,512.094303 71.6250497,513.348981 70.6064423,514.23 C70.0154886,514.717702 69.3365911,515.087701 68.6064423,515.32 C68.0140239,515.522667 67.4050462,515.673239 66.7864423,515.77 C65.9964423,515.89 65.1764423,515.96 64.3864423,516.01 C61.953109,516.17 59.5297756,516.236667 57.1164423,516.21 L56.8364423,516.21 C51.671204,516.170833 46.5163921,515.739593 41.4164423,514.92 L40.6464423,514.78 C39.7364423,514.64 38.8164423,514.47 37.9064423,514.29 L37.9064423,514.29 L37.3464423,514.18 C37.3414602,514.113426 37.3414602,514.046574 37.3464423,513.98 C37.3278711,513.488583 37.3546511,512.9965 37.4264423,512.51 C37.4264423,512.28 37.4964423,512.06 37.5464423,511.84 C37.5617724,511.765472 37.5818126,511.691991 37.6064423,511.62 C38.0198014,510.015982 38.7659568,508.516857 39.7964423,507.22 C39.9064423,507.07 40.0364423,506.93 40.1564423,506.78 C40.5200007,506.329895 40.9107291,505.902432 41.3264423,505.5 C43.7864423,503.1 43.5864423,500.58 46.7864423,498.98 C50.3964423,497.18 57.9764423,496.25 61.9564423,497.31 C64.5044227,498.088488 66.7208783,499.692779 68.2564423,501.87 C68.3964423,502.04 68.5264423,502.22 68.6564423,502.4 C69.0864423,502.96 69.4864423,503.53 69.8564423,504.1 C69.8827217,504.15214 69.912803,504.202276 69.9464423,504.25 L70.2264423,504.67 C70.2764423,504.74 70.3164423,504.82 70.3764423,504.9 C71.2546681,506.184192 71.8823441,507.622757 72.2264423,509.14 C72.2836511,509.392998 72.3171296,509.650782 72.3264423,509.91 Z" id="Path" fill="#F4FAFA" fill-rule="nonzero"></path>
                        <path d="M111.606442,362.79 C110.196442,364.95 108.896442,366.97 107.726442,368.79 C104.136442,374.49 101.796442,378.61 101.206442,380.51 C96.8264423,394.51 78.4564423,428.93 75.8264423,441.76 C74.4164423,448.66 71.9964423,457.83 70.0564423,464.84 C68.5450644,470.309611 63.2263552,473.822515 57.6024787,473.0656 C51.9786022,472.308685 47.7779301,467.514573 47.7664423,461.84 C47.7664423,461.5 47.7664423,461.16 47.8164423,460.84 C49.2564423,444.57 52.2764423,411.94 54.8164423,392.84 C57.0264423,376.28 66.3164423,367.14 74.6364423,353.72 C76.3839693,350.914171 77.9860839,348.020351 79.4364423,345.05 C80.3512311,351.589509 84.1072294,357.391263 89.6993382,360.902722 C95.2914469,364.414181 102.148823,365.276894 108.436442,363.26 C109.429212,362.812855 110.526641,362.650145 111.606442,362.79 L111.606442,362.79 Z" id="Path" fill="#EA9B82" fill-rule="nonzero"></path>
                        <path d="M107.676442,368.82 C104.086442,374.52 101.746442,378.64 101.156442,380.54 C99.6564423,385.34 96.5164423,392.54 92.9164423,400.43 C86.0364423,415.59 77.5064423,433.36 75.7764423,441.79 C74.3664423,448.69 71.9464423,457.86 70.0064423,464.87 C68.4950644,470.339611 63.1763552,473.852515 57.5524787,473.0956 C51.9286022,472.338685 47.7279301,467.544573 47.7164423,461.87 C47.7164423,461.53 47.7164423,461.19 47.7664423,460.87 C49.2064423,444.6 52.2264423,411.97 54.7664423,392.87 C55.1427739,390.010849 55.7684922,387.190097 56.6364423,384.44 C60.3464423,372.81 67.7964423,364.71 74.5864423,353.75 C81.5817884,364.971647 94.6003202,370.933883 107.666442,368.9 L107.676442,368.82 Z" id="Path" fill="#C2442B" fill-rule="nonzero"></path>
                        <path d="M232.666442,392.63 L232.766442,392.81 L232.256442,392.72 C231.828454,392.803527 231.390925,392.827086 230.956442,392.79 C226.520612,392.525031 222.14425,391.636293 217.956442,390.15 C210.546442,388.69 201.256442,386.68 192.266442,384.26 C175.816442,379.81 160.356442,373.94 159.156442,367.41 C156.526442,353.12 174.616442,347.58 174.616442,347.58 L192.506442,346.87 L201.256442,346.53 C201.796442,348.44 202.356442,350.34 202.966442,352.23 C205.656442,360.6 209.126442,368.7 214.286442,375.77 C218.708339,381.929827 224.53644,386.945422 231.286442,390.4 C232.286442,390.92 233.406442,391.4 234.486442,391.8 C233.930493,392.176558 233.315279,392.457122 232.666442,392.63 Z" id="Path" fill="#C2442B" fill-rule="nonzero"></path>
                        <path d="M232.666442,392.63 L232.766442,392.81 L232.256442,392.72 C231.828454,392.803527 231.390925,392.827086 230.956442,392.79 C226.520612,392.525031 222.14425,391.636293 217.956442,390.15 C210.546442,388.69 201.256442,386.68 192.266442,384.26 C192.016442,383.48 191.816442,382.69 191.616442,381.91 C189.686442,374.47 187.746442,366.91 187.826442,359.23 C187.826442,355.32 188.536442,351.18 191.096442,348.23 C191.528816,347.739211 192.000369,347.28438 192.506442,346.87 L201.256442,346.53 C201.796442,348.44 202.356442,350.34 202.966442,352.23 C205.656442,360.6 209.126442,368.7 214.286442,375.77 C218.708339,381.929827 224.53644,386.945422 231.286442,390.4 C232.286442,390.92 233.406442,391.4 234.486442,391.8 C233.930493,392.176558 233.315279,392.457122 232.666442,392.63 Z" id="Path" fill="#B03723" fill-rule="nonzero"></path>
                        <path d="M108.536442,267.01 C116.536442,266.51 124.156442,268.89 131.536442,271.76 C138.056442,274.31 144.646442,277.12 149.216442,282.64 C149.626442,283.14 150.326442,282.43 149.926442,281.94 C145.446442,276.52 139.056442,273.67 132.666442,271.14 C124.966442,268.08 116.946442,265.49 108.556442,266.01 C107.916442,266.01 107.916442,267.01 108.556442,267.01 L108.536442,267.01 Z" id="Path" fill="#42504A" fill-rule="nonzero"></path>
                        <path d="M207.246442,298.23 C214.396442,293.68 222.726442,291.97 231.066442,291.23 C239.406442,290.49 248.496442,289.94 256.826442,291.81 C257.456442,291.95 257.716442,290.99 257.086442,290.81 C248.406442,288.86 239.026442,289.45 230.226442,290.27 C221.996442,291.04 213.796442,292.82 206.746442,297.27 C206.206442,297.61 206.746442,298.48 207.246442,298.13 L207.246442,298.23 Z" id="Path" fill="#42504A" fill-rule="nonzero"></path>
                        <path d="M281.686442,122.49 C280.936442,124.12 280.206442,125.81 279.516442,127.55 C277.746442,131.91 276.136442,136.61 274.666442,141.55 L274.666442,141.6 C261.466442,185.85 259.666442,247.86 259.666442,247.86 L131.746442,221.86 C131.813109,213.193333 132.169776,204.946667 132.816442,197.12 C133.603656,187.028339 134.95914,176.989079 136.876442,167.05 C137.396442,164.4 137.946442,161.82 138.536442,159.29 C146.166442,126.29 159.536442,103.5 174.536442,87.83 C189.289133,72.3761546 208.299749,61.6526633 229.156442,57.02 C243.106442,53.95 253.986442,54.5 257.616442,55.45 C259.202759,55.8751954 260.751334,56.4304081 262.246442,57.11 C265.643887,58.6330234 268.835729,60.5783671 271.746442,62.9 C284.326442,72.8 295.686442,92.23 281.686442,122.49 Z" id="Path" fill="#478AC9" fill-rule="nonzero"></path>
                        <path d="M274.606442,141.58 C261.406442,185.83 259.606442,247.84 259.606442,247.84 L131.686442,221.84 C131.753109,213.173333 132.109776,204.926667 132.756442,197.1 C187.896442,210.55 252.606442,202.43 274.606442,141.58 Z" id="Path" fill="#417FC2" fill-rule="nonzero"></path>
                        <path d="M231.336442,52.96 L229.216442,57.01 L207.336442,98.96 L190.206442,116.13 L179.996442,126.37 L152.996442,153.37 L146.996442,159.37 L146.996442,159.37 L140.266442,159.24 L138.546442,159.24 L122.326442,158.92 C122.733109,156.92 123.159776,154.97 123.606442,153.07 C127.866442,134.56 133.606442,118.44 140.816442,104.85 C141.496442,103.55 142.196442,102.27 142.926442,101.02 C143.806442,99.4466667 144.723109,97.9166667 145.676442,96.43 C150.089638,89.2991769 155.336608,82.7194828 161.306442,76.83 C179.356442,59.23 202.656442,50.98 231.336442,52.96 Z" id="Path" fill="#478AC9" fill-rule="nonzero"></path>
                        <path d="M170.906442,153.61 L169.806442,159.71 L147.046442,159.4 L140.276442,159.31 L122.336442,158.96 C122.743109,156.96 123.169776,155.01 123.616442,153.11 L153.016442,153.41 L164.396442,153.53 L170.906442,153.61 Z" id="Path" fill="#6CAEE0" fill-rule="nonzero"></path>
                        <path d="M392.846442,181.23 C389.286442,183.02 385.176442,182.55 381.456442,181.3 C377.544482,179.856771 373.883269,177.808516 370.606442,175.23 L370.606442,175.23 C370.496442,174.67 364.056442,143.23 355.216442,124.23 C354.084921,121.736065 352.781795,119.32361 351.316442,117.01 C346.046442,117.29 339.116442,117.2 332.136442,116.95 L283.336442,116.95 L305.426442,78.69 L308.606442,73.23 L310.836442,74.03 L311.286442,74.19 L312.346442,74.56 L319.346442,77.04 L365.776442,93.54 C372.19263,95.8247912 377.060936,101.138735 378.776442,107.73 C383.446442,125.67 392.256442,161.93 392.776442,180.43 L392.776442,180.43 C392.836442,180.69 392.846442,180.98 392.846442,181.23 Z" id="Path" fill="#F3A384" fill-rule="nonzero"></path>
                        <path d="M310.846442,73.98 C310.506442,78.46 307.526442,92.43 305.216442,102.83 C303.686442,109.71 302.336442,116.96 302.336442,116.96 L298.196442,117.28 L297.956442,117.28 L297.246442,117.35 C291.749634,117.907057 286.440008,119.654183 281.686442,122.47 L277.086442,120.04 L269.336442,115.94 L260.416442,56.45 L261.296442,56.74 L261.406442,56.74 L262.306442,57.04 C264.376442,57.74 268.026442,58.98 272.446442,60.46 L282.746442,63.93 L282.806442,63.93 L305.526442,72.01 L306.636442,72.4 L308.636442,73.1 L310.846442,73.98 Z" id="Path" fill="#478AC9" fill-rule="nonzero"></path>
                        <path d="M197.306442,55.03 C194.126442,61.77 194.086442,69.73 195.686442,77.03 C198.151754,88.3949815 204.355561,98.6055613 213.306442,106.03 C216.636442,108.76 220.406442,111.03 224.586442,111.81 C225.559275,112.042891 226.577962,111.997847 227.526442,111.68 C228.211697,111.33785 228.831196,110.877457 229.356442,110.32 L234.496442,105.5 C235.54189,104.569568 236.520947,103.567119 237.426442,102.5 C241.346442,97.61 241.916442,90.5 240.146442,84.41 C238.376442,78.32 234.596442,73.09 230.486442,68.41 C227.119149,64.4013914 223.266226,60.8272768 219.016442,57.77" id="Path" fill="#417FC2" fill-rule="nonzero"></path>
                        <path d="M234.236442,148.29 C234.236442,171.51 222.766442,190.83 207.656442,194.84 C205.754605,195.347809 203.794904,195.606637 201.826442,195.61 C200.365682,195.613107 198.908324,195.469046 197.476442,195.18 C181.606442,192.09 169.416442,172.23 169.416442,148.29 C169.416442,127.99 178.166442,110.67 190.466442,103.95 C193.875035,102.045344 197.702337,101.014652 201.606442,100.95 L201.826442,100.95 C219.716442,100.96 234.236442,122.15 234.236442,148.29 Z" id="Path" fill="#7B9B5D" fill-rule="nonzero"></path>
                        <path d="M234.236442,148.29 C234.236442,171.51 222.766442,190.83 207.656442,194.84 C211.736442,183.93 215.036442,172.7 216.486442,161.16 C218.226442,147.28 217.216442,132.87 211.956442,119.92 C209.246442,113.24 205.466442,107.08 201.606442,100.969996 L201.826442,100.97 C219.726442,100.96 234.236442,122.15 234.236442,148.29 Z" id="Path" fill="#D7D4C4" fill-rule="nonzero"></path>
                        <path d="M209.806442,102.41 L209.796442,102.4" id="Path" stroke="#D7D4C4" stroke-dasharray="0.01"></path>
                        <path d="M216.336442,151.29 C216.336442,170.75 208.606442,187.53 197.476442,195.18 C181.606442,192.09 169.416442,172.23 169.416442,148.29 C169.416442,127.99 178.166442,110.67 190.466442,103.95 C205.236442,108.48 216.336442,127.95 216.336442,151.29 Z" id="Path" fill="#F4F3E9" fill-rule="nonzero"></path>
                        <path d="M199.086442,59.16 C196.146442,75.51 203.286442,93.55 216.086442,102.01 C217.826442,103.16 219.786442,104.17 221.796442,103.92 C224.526442,103.58 226.576442,101.04 228.356442,98.67 L199.086442,59.16 Z" id="Path" fill="#CF816C" fill-rule="nonzero"></path>
                        <path d="M234.166442,163.81 C235.047156,163.824714 235.887104,164.183666 236.506442,164.81 C237.736442,166 238.056442,168.13 235.916442,170.27 C232.706442,173.48 220.746442,184.27 209.916442,183.69 C208.844956,183.63032 207.790724,183.393793 206.796442,182.99 C202.026442,181.05 198.986442,175.54 197.246442,171.12 C196.476594,169.189139 195.851534,167.203654 195.376442,165.18 L195.376442,165.02 C199.456442,157.73 194.786442,131.77 193.916442,127.1 C193.046442,122.43 200.036442,125.64 201.206442,133.52 C202.376442,141.4 211.126442,153.35 219.876442,147.52 C228.626442,141.69 229.216442,132.63 232.706442,134.1 C238.186442,136.4 230.276442,149.54 230.096442,149.84 C230.386442,149.62 235.036442,145.96 234.746442,142.84 C238.546442,144.01 239.126442,149.84 236.796442,152.76 C234.606442,155.5 232.926442,157.46 232.726442,157.7 C232.996442,157.5 236.246442,155.03 237.086442,153.63 C238.246442,158.85 236.796442,162.06 234.166442,163.81 Z" id="Path" fill="#F3A384" fill-rule="nonzero"></path>
                        <path d="M206.896442,182.92 L206.836442,182.92 C204.536442,184.07 136.286442,217.92 126.836442,212.5 C120.836442,209.03 120.036442,195.5 120.746442,181.88 C121.156442,173.72 121.696442,165.05 122.346442,158.93 L170.006442,159.41 L168.696442,168.6 L195.426442,165.11 L195.526442,165.11 L199.366442,171.11 L206.896442,182.92 Z" id="Path" fill="#F3A384" fill-rule="nonzero"></path>
                        <path d="M256.116442,46.87 C256.116442,69.52 249.116442,100.54 234.856442,101.32 C233.53636,101.385685 232.215245,101.212924 230.956442,100.81 C220.396442,97.55 209.146442,87.66 203.336442,75.96 C198.836442,66.9 198.746442,56.6 197.576442,48.38 C196.88255,44.3033 196.828569,40.1433328 197.416442,36.05 C197.416442,35.97 197.416442,35.88 197.466442,35.8 C197.460753,35.726777 197.460753,35.653223 197.466442,35.58 C198.102617,32.3165134 199.144015,29.1452893 200.566442,26.14 C205.206442,16.45 213.566442,10.37 224.496442,11.26 C226.285028,11.4092441 228.055933,11.723923 229.786442,12.2 C234.691424,13.4988419 239.251881,15.8575813 243.146442,19.11 C251.388406,25.9698506 256.143275,36.1468104 256.116442,46.87 L256.116442,46.87 Z" id="Path" fill="#F3A384" fill-rule="nonzero"></path>
                        <path d="M392.846442,181.23 C394.036442,182.93 399.216442,187.68 400.396442,189.39 C401.608474,190.946032 402.545324,192.697977 403.166442,194.57 C403.484328,196.405877 403.691369,198.259232 403.786442,200.12 C404.026442,201.9 404.606442,203.62 404.786442,205.41 C405.073691,207.228677 404.496911,209.07733 403.226442,210.41 C401.896442,211.58 399.976442,211.74 398.226442,211.72 C398.030032,211.690453 397.829749,211.736948 397.666442,211.85 C397.556562,211.980684 397.487072,212.140511 397.466442,212.31 C397.149399,213.602044 396.257277,214.677301 395.045949,215.227372 C393.834622,215.777444 392.437922,215.741555 391.256442,215.13 C390.978348,216.705557 389.819328,217.98094 388.27748,218.408045 C386.735631,218.83515 385.085578,218.337903 384.036442,217.13 C383.241896,218.152842 382.179149,218.93519 380.966442,219.39 C379.711387,219.81408 378.324904,219.415665 377.486442,218.39 L377.026442,220.17 L376.946442,220.3 C377.046442,225.68 371.256442,229.3 371.946442,226.12 C372.636442,222.94 371.216442,219.42 368.946442,213.01 C366.676442,206.6 371.946442,196.94 373.356442,191.29 C374.766442,185.64 370.656442,175.29 370.656442,175.29 L392.846442,181.23 Z" id="Path" fill="#F3A384" fill-rule="nonzero"></path>
                        <g id="Group" opacity="0.5" transform="translate(120.006442, 164.040000)" fill="#EA9B82" fill-rule="nonzero">
                            <path d="M115.91,6.19 C112.7,9.4 100.74,20.19 89.91,19.61 C88.8385138,19.5503197 87.7842814,19.3137932 86.79,18.91 C84.49,20.06 16.24,53.91 6.79,48.49 C0.79,45.02 -0.01,31.49 0.7,17.87 C1.89883843,19.6477779 3.62213718,21.007541 5.63,21.76 C10,23.34 14.84,22.4 19.38,21.42 C35,18.03 50.58,14.35 65.83,9.57 C69.56,8.4 73.36,7.15 77.25,7.04 C77.57,7.04 77.89,7.04 78.25,7.04 L79.36,7.1 C82.36,7.33 85.36,8.17 88.29,8.62 C97.2093531,9.94393282 106.296776,7.7964521 113.68,2.62 C114.585401,1.94716852 115.530439,1.32938705 116.51,0.77 C117.73,1.92 118.05,4.05 115.91,6.19 Z" id="Path"></path>
                        </g>
                        <path d="M231.916442,83.83 C235.118578,84.4324328 238.368212,84.7470215 241.626442,84.77" id="Path" stroke="#DB8D75"></path>
                        <path d="M220.276442,35.17 C219.066442,38.51 216.386442,41.07 213.966442,43.68 C213.171555,44.5207331 212.420557,45.4019035 211.716442,46.32 C210.677706,47.6437034 209.872789,49.1351656 209.336442,50.73 C209.115141,51.4181016 208.974204,52.1294991 208.916442,52.85 C208.927902,54.8412231 209.128807,56.8268385 209.516442,58.78 C209.897682,60.7616745 209.500103,62.8140391 208.406442,64.51 C208.406442,59.31 207.076442,54.1 202.336442,51.96 C201.506442,51.59 198.616442,51.47 197.966442,50.84 C197.82345,50.6981731 197.692965,50.5442686 197.576442,50.38 C196.886442,45.48 196.336442,27.96 198.336442,25.96 C199.046442,25.25 199.786442,28.71 200.616442,28.14 C202.359131,26.9515391 204.368893,26.2129085 206.466442,25.99 C209.573961,25.7140614 212.702222,26.1908467 215.586442,27.38 C217.826442,28.24 220.196442,29.68 220.656442,32.04 C220.811077,33.0985531 220.67988,34.1792002 220.276442,35.17 Z" id="Path" fill="#413E33" fill-rule="nonzero"></path>
                        <path d="M392.846442,181.23 C389.286442,183.02 385.176442,182.55 381.456442,181.3 C377.544482,179.856771 373.883269,177.808516 370.606442,175.23 L370.606442,175.23 C370.496442,174.67 364.056442,143.23 355.216442,124.23 C354.084921,121.736065 352.781795,119.32361 351.316442,117.01 C346.046442,117.29 339.116442,117.2 332.136442,116.95 L302.336442,116.95 C302.697488,116.445162 302.867589,115.828546 302.816442,115.21 L305.026442,104.52 L305.366442,102.85 L307.206442,93.94 L308.126442,89.48 C363.996442,102.87 364.336442,93.08 392.826442,180.37 L392.826442,180.37 C392.836442,180.69 392.846442,180.98 392.846442,181.23 Z" id="Path" fill="#EA9B82" fill-rule="nonzero" opacity="0.5"></path>
                        <path d="M249.776442,349.03 C249.496442,350.61 249.216442,352.16 248.926442,353.68 C245.266442,372.82 240.536442,387.87 234.506442,391.78 C233.947437,392.157572 233.328763,392.438173 232.676442,392.61 C232.542045,392.649536 232.405043,392.67961 232.266442,392.7 C231.838454,392.783527 231.400925,392.807086 230.966442,392.77 C226.530612,392.505031 222.15425,391.616293 217.966442,390.13 C207.836442,386.28 206.966442,379.94 206.966442,379.94 L204.036442,359.74 L203.016442,352.23 L202.186442,346.5 L201.736442,343.4 C203.98926,346.93704 206.495846,350.305891 209.236442,353.48 C214.356442,359.42 221.416442,365.04 229.176442,363.91 C232.575902,363.247376 235.765816,361.7759 238.476442,359.62 C242.650333,356.551319 246.443736,352.996263 249.776442,349.03 Z" id="Path" fill="#F3A384" fill-rule="nonzero"></path>
                        <path d="M142.606442,402.17 C145.606442,411.56 155.126442,412.51 163.606442,412.17 C164.246442,412.17 164.246442,411.17 163.606442,411.17 C155.606442,411.45 146.416442,410.8 143.526442,401.86 C143.336442,401.25 142.366442,401.52 142.526442,402.13 L142.606442,402.17 Z" id="Path" fill="#D9EAE6" fill-rule="nonzero"></path>
                        <path d="M140.606442,410.23 C140.296442,411.9 141.886442,413.09 143.026442,414.11 C144.813392,415.711589 146.837318,417.027141 149.026442,418.01 C153.251664,419.899326 157.934575,420.521167 162.506442,419.8 C163.136442,419.7 162.866442,418.74 162.236442,418.8 C158.514041,419.39129 154.703025,419.047646 151.146442,417.8 C149.433827,417.182858 147.799365,416.367306 146.276442,415.37 C145.206442,414.67 141.276442,412.09 141.566442,410.51 C141.686442,409.88 140.726442,409.61 140.566442,410.24 L140.606442,410.23 Z" id="Path" fill="#D9EAE6" fill-rule="nonzero"></path>
                        <path d="M67.9964423,499.97 C65.4964423,497.16 60.8264423,496.74 57.3064423,496.42 C52.5280696,496.015772 47.7161954,496.504081 43.1164423,497.86 C42.8403,497.931797 42.6746454,498.213858 42.7464424,498.49 C42.8182394,498.766142 43.1003,498.931797 43.3764423,498.86 C47.3210025,497.700248 51.4280291,497.190247 55.5364423,497.35 C59.1164423,497.5 64.7264423,497.83 67.2864423,500.71 C67.7164423,501.2 68.4164423,500.49 67.9964423,500.01 L67.9964423,499.97 Z" id="Path" fill="#D9EAE6" fill-rule="nonzero"></path>
                        <path d="M68.9364423,503.01 C60.9364423,499.9 52.3164423,501.46 44.1664423,503.27 C43.5364423,503.41 43.8064423,504.37 44.4364423,504.27 C52.4364423,502.5 60.7964423,500.97 68.6764423,504.02 C69.2764423,504.25 69.5364423,503.28 68.9364423,503.02 L68.9364423,503.01 Z" id="Path" fill="#D9EAE6" fill-rule="nonzero"></path>
                        <path d="M194.336442,164.96 C195.336442,170.96 208.336442,180.96 207.336442,182.96 C206.336442,184.96 198.336442,187.96 198.336442,187.96 C198.336442,187.96 185.966442,183.61 186.656442,166.29 C187.336442,163.96 194.336442,164.96 194.336442,164.96 Z" id="Path" fill="#F4FAFA" fill-rule="nonzero"></path>
                        <path d="M392.846442,180.77 C386.946442,179.25 372.546442,187.1 371.126442,185.38 C369.706442,183.66 370.186442,175.12 370.186442,175.12 C370.186442,175.12 376.766442,164.33 392.336442,171.96 C394.186442,173.53 392.846442,180.77 392.846442,180.77 Z" id="Path" fill="#F4FAFA" fill-rule="nonzero"></path>
                        <path d="M201.286442,51.5 C199.856442,50.12 197.336442,49.5 195.966442,50.93 C194.596442,52.36 195.196442,54.47 195.796442,56.24 L196.656442,58.8 C197.1177,60.4120909 197.811674,61.948267 198.716442,63.36 C199.649422,64.7760963 201.161741,65.7061909 202.846442,65.9" id="Path" fill="#F3A384" fill-rule="nonzero"></path>
                        <path d="M107.676442,368.82 C104.086442,374.52 101.746442,378.64 101.156442,380.54 C99.6564423,385.34 96.5164423,392.54 92.9164423,400.43 C92.6264423,400.43 92.3364423,400.43 92.0464423,400.43 C85.6264423,399.96 79.5064423,397.6 73.4964423,395.26 C68.2364423,393.26 62.8164423,391.07 58.8264423,387.08 C58.0061007,386.267129 57.2752589,385.368663 56.6464423,384.4 C60.3564423,372.77 67.8064423,364.67 74.5964423,353.71 C81.5917884,364.931647 94.6103202,370.893883 107.676442,368.86 L107.676442,368.82 Z" id="Path" fill="#B03723" fill-rule="nonzero"></path>
                        <path d="M70.6064423,359.72 L70.6064423,359.72 C71.3464423,360.72 72.0764423,361.77 72.8764423,362.72 C76.5851084,367.061855 81.3524332,370.372115 86.7164423,372.33 C92.0640979,374.27312 97.6975132,375.313967 103.386442,375.41 L103.606442,375.41" id="Path" stroke="#F4FAFA"></path>
                        <path d="M199.976442,346.58 C198.236442,349.58 198.566442,353.58 199.106442,357.15 C200.366442,365.53 202.106442,373.84 203.736442,382.15 C204.016359,383.999285 204.572569,385.796011 205.386442,387.48 L205.386442,387.48" id="Path" stroke="#F4FAFA"></path>
                        <path d="M254.176442,27.63 C254.145597,19.5579466 250.613979,11.8963785 244.496442,6.63 C244.016442,6.21 243.296442,6.92 243.786442,7.34 C249.714713,12.4143148 253.142137,19.8166747 253.176442,27.62 C253.176442,27.8961424 253.4003,28.12 253.676442,28.12 C253.952585,28.12 254.176442,27.8961424 254.176442,27.62 L254.176442,27.63 Z" id="Path" fill="#393130" fill-rule="nonzero"></path>
                        <path d="M248.606442,19.14 C245.696442,14.67 240.606442,13.26 235.526442,12.82 C229.236442,12.26 222.586442,11.82 216.526442,13.91 C215.926442,14.11 216.186442,15.08 216.796442,14.91 C222.006442,13.14 227.456442,13.37 232.876442,13.68 C238.296442,13.99 244.486442,14.68 247.756442,19.68 C248.106442,20.22 248.966442,19.68 248.616442,19.18 L248.606442,19.14 Z" id="Path" fill="#393130" fill-rule="nonzero"></path>
                        <path d="M247.936442,23.51 C241.195238,20.0589974 233.494826,18.9574302 226.056442,20.38 C225.416442,20.5 225.686442,21.46 226.316442,21.38 C233.491105,20.0119382 240.916983,21.0672501 247.426442,24.38 C248.006442,24.67 248.506442,23.81 247.936442,23.52 L247.936442,23.51 Z" id="Path" fill="#393130" fill-rule="nonzero"></path>
                        <path d="M310.846442,73.98 C310.506442,78.46 307.526442,92.43 305.216442,102.83 C303.686442,109.71 302.336442,116.96 302.336442,116.96 L298.196442,117.28 L297.956442,117.28 L297.246442,117.35 L304.426442,78.05 L305.526442,72.05 L306.636442,72.44 L308.636442,73.14 L310.846442,73.98 Z" id="Path" fill="#6CAEE0" fill-rule="nonzero"></path>
                        <path d="M242.336442,57.96 C242.336442,57.96 245.336442,74.96 243.336442,74.96 C241.336442,74.96 236.836442,74.46 236.836442,74.46" id="Path" stroke="#DB8D75"></path>
                        <path d="M172.606442,382.9 L160.296442,386.57 C160.029447,386.619583 159.786627,386.756829 159.606442,386.96 C159.206442,387.55 159.996442,388.21 160.656442,388.48 C163.619244,389.713085 166.516431,391.098261 169.336442,392.63 C169.705936,392.787238 170.019541,393.052061 170.236442,393.39 C170.473553,393.99682 170.257381,394.686907 169.716442,395.05 C169.183913,395.394015 168.577239,395.606522 167.946442,395.67 L157.946442,397.49 C157.326442,397.61 156.556442,397.86 156.496442,398.49 C156.514882,398.903095 156.703035,399.290254 157.016442,399.56 C159.362622,402.078992 162.148101,404.149464 165.236442,405.67 C165.536315,405.809158 165.748035,406.087526 165.802059,406.413671 C165.856083,406.739815 165.745429,407.071583 165.506442,407.3 L165.506442,407.3 C165.267693,407.558385 164.910732,407.672308 164.566442,407.6 L155.646442,405.89 C154.886442,405.74 153.946442,405.41 153.896442,404.64 C153.846442,403.87 154.666442,403.43 155.366442,403.19 C157.846934,402.330024 160.451187,401.880782 163.076442,401.86 C164.620188,401.963845 166.170538,401.815228 167.666442,401.42 C168.073993,401.306115 168.365741,400.948035 168.394933,400.52588 C168.424124,400.103725 168.184439,399.708896 167.796442,399.54 C164.875985,397.997392 162.044826,396.291352 159.316442,394.43 C158.596442,393.94 157.796442,393.15 158.126442,392.34 C158.402414,391.877284 158.859234,391.550984 159.386442,391.44 C162.000622,390.537943 164.707418,389.930843 167.456442,389.63 C168.456442,389.52 169.776442,389.16 169.796442,388.14 C169.719429,387.570271 169.412205,387.057027 168.946442,386.72 L161.586442,379.81" id="Path" stroke="#D9EAE6"></path>
                        <path d="M235.186442,450.23 C235.359999,448.85792 235.816277,447.536756 236.526442,446.35 C237.779486,444.236553 239.630767,442.541865 241.846442,441.48 C243.095125,440.870478 244.457829,440.529802 245.846442,440.48 C245.680868,441.852466 245.227671,443.174575 244.516442,444.36 C243.894482,445.415068 243.115563,446.369328 242.206442,447.19 C241.310926,448.001454 240.299906,448.675468 239.206442,449.19 C237.954707,449.816092 236.58476,450.170506 235.186442,450.23 L235.186442,450.23 Z" id="Path" fill="#82C286" fill-rule="nonzero"></path>
                        <path d="M49.5064423,323.38 C48.4123801,322.046544 47.5565018,320.534379 46.9764423,318.91 C46.4285555,317.410751 46.0528116,315.854098 45.8564423,314.27 C45.6546634,312.687332 45.6378838,311.08655 45.8064423,309.5 C45.9576978,307.781512 46.4184431,306.104534 47.1664423,304.55 C48.2694844,305.875255 49.1293995,307.385185 49.7064423,309.01 C50.2547276,310.508509 50.6272202,312.065595 50.8164423,313.65 C51.0132658,315.236353 51.030039,316.839877 50.8664423,318.43 C50.7028969,320.146255 50.2427357,321.821106 49.5064423,323.38 L49.5064423,323.38 Z" id="Path" fill="#82C286" fill-rule="nonzero"></path>
                        <path d="M6.1564423,404.02 C4.83881367,402.906976 3.72838417,401.569721 2.8764423,400.07 C2.0725485,398.689665 1.42520897,397.223927 0.946442301,395.7 C0.471710772,394.175768 0.173098637,392.602183 0.0564423013,391.01 C-0.0967365677,389.29226 0.0625006562,387.560979 0.526442301,385.9 C1.84868671,387.027925 2.95937813,388.382427 3.8064423,389.9 C4.61130473,391.278525 5.25550888,392.74476 5.7264423,394.27 C6.19636335,395.79543 6.49487124,397.368466 6.6164423,398.96 C6.75735605,400.660579 6.60170773,402.37271 6.1564423,404.02 Z" id="Path" fill="#82C286" fill-rule="nonzero"></path>
                        <path d="M142.796442,394.56 C143.256442,398.21 144.996442,401.72 144.706442,405.38 C144.466442,408.51 142.776442,411.3 141.416442,414.13 C141.269776,414.443333 141.129776,414.753333 140.996442,415.06 C140.362313,408.174015 140.972022,401.230112 142.796442,394.56 L142.796442,394.56 Z" id="Path" fill="#748784" fill-rule="nonzero"></path>
                        <path d="M171.486442,337.9 C165.421578,338.506234 159.952378,341.811996 156.596442,346.9 C151.786442,354.4 152.506442,364.11 149.646442,372.54 C149.376442,373.33 149.076442,374.11 148.756442,374.89 C150.157092,369.876005 151.018637,364.726847 151.326442,359.53 C151.586442,353.47 152.936442,346.8 157.396442,342.37 C160.476442,339.31 165.806442,336.98 170.286442,337.62 C170.693445,337.68026 171.0948,337.773909 171.486442,337.9 Z" id="Path" fill="#748784" fill-rule="nonzero"></path>
                        <path d="M69.4664423,489.67 C69.2364423,493.94 69.0064423,498.3 68.6464423,502.44 C68.5564423,502.27 68.4664423,502.11 68.3864423,501.94 C68.352473,501.882068 68.3224062,501.821935 68.2964423,501.76 C67.8264423,500.87 67.2964423,499.97 66.7764423,499.1 C66.8738001,497.463661 67.1692916,495.845173 67.6564423,494.28 C68.150161,492.702521 68.7550082,491.161999 69.4664423,489.67 Z" id="Path" fill="#748784" fill-rule="nonzero"></path>
                        <path d="M72.3064423,510.75 C72.2303035,512.091278 71.6176138,513.34549 70.6064423,514.23 C70.0154886,514.717702 69.3365911,515.087701 68.6064423,515.32 C68.0140239,515.522667 67.4050462,515.673239 66.7864423,515.77 C65.9964423,515.89 65.1764423,515.96 64.3864423,516.01 C61.953109,516.17 59.5297756,516.236667 57.1164423,516.21 L56.1664423,516.21 C50.320463,516.257742 44.4834863,515.742025 38.7364423,514.67 L37.9364423,514.51 L37.9364423,514.29 L37.9364423,514.29 L37.3764423,514.18 C37.3714602,514.113426 37.3714602,514.046574 37.3764423,513.98 C37.3777913,513.568745 37.4045087,513.157965 37.4564423,512.75 L37.7864423,512.92 C39.5047512,513.78231 41.3781464,514.292309 43.2964423,514.42 C46.1964423,514.66 49.1164423,514.33 52.0264423,514.36 C55.2064423,514.36 58.3764423,514.9 61.5564423,514.81 C63.4621896,514.787401 65.3510529,514.4495 67.1464423,513.81 C68.3936465,513.346387 69.5508455,512.669662 70.5664423,511.81 C71.0407286,511.306823 71.6417765,510.940667 72.3064423,510.75 L72.3064423,510.75 Z" id="Path" fill="#748784" fill-rule="nonzero"></path>
                        <path d="M255.326442,31.81 C254.776442,33.17 254.106442,34.53 253.476442,35.89 C252.134843,35.9119058 250.806417,36.1586617 249.546442,36.62 C239.036442,39.9 227.606442,41.62 217.036442,38.55 C215.63688,37.9688968 214.110156,37.7621171 212.606442,37.95 C209.796442,38.61 208.666442,41.95 208.016442,44.71 L206.696442,50.44 C206.486442,51.35 206.086442,52.44 205.156442,52.59 C204.793405,52.6248911 204.427612,52.5627754 204.096442,52.41 C201.500514,51.3985706 199.527989,49.229903 198.766442,46.55 L199.116442,44.49 C197.606442,36.06 196.376442,27.09 199.606442,19.15 C201.591138,14.329384 205.067618,10.2711549 209.526442,7.57 C210.571541,7.03509097 211.540176,6.36242785 212.406442,5.57 C217.887337,3.24684575 223.806303,2.13810574 229.756442,2.32 C235.959566,2.54019461 242.130685,3.31325781 248.196442,4.63 C249.783705,5.65838547 251.303481,6.78736237 252.746442,8.01 C257.371749,15.071124 258.331187,23.9217528 255.326442,31.81 L255.326442,31.81 Z" id="Path" fill="#413E33" fill-rule="nonzero"></path>
                        <path d="M252.676442,35.31 C257.918863,34.258292 261.882902,29.9427018 262.486442,24.63 C261.321385,24.9203298 260.20589,25.3820302 259.176442,26 C261.038321,21.1525361 260.930653,15.7691421 258.876442,11 C256.503631,16.2463821 251.918654,20.1643199 246.366442,21.69" id="Path" fill="#413E33" fill-rule="nonzero"></path>
                        <path d="M206.226442,10.35 C210.227638,6.13139486 215.259923,3.02930154 220.826442,1.35 C220.193511,2.44891871 219.715648,3.63011515 219.406442,4.86 C222.81151,2.18108475 226.892688,0.498766966 231.196442,-4.08562073e-14 C229.992444,1.98676069 229.359263,4.26690329 229.366442,6.59" id="Path" fill="#413E33" fill-rule="nonzero"></path>
                        <path d="M253.936442,16.89 C254.915542,15.6215986 255.36372,14.0224984 255.186442,12.43 C254.866442,7.27 250.626442,3.07 245.886442,1.02 C247.576442,2.76 247.576442,5.66 246.426442,7.79 C245.144843,9.86635687 243.295203,11.5320745 241.096442,12.59 C238.097242,14.2464953 234.853234,15.4144735 231.486442,16.05" id="Path" fill="#413E33" fill-rule="nonzero"></path>
                        <path d="M200.806442,21.23 C199.286442,23.88 195.956442,25.36 195.096442,28.29 C196.872556,27.0410207 198.805966,26.0322847 200.846442,25.29" id="Path" fill="#413E33" fill-rule="nonzero"></path>
                        <g id="Group" opacity="0.5" transform="translate(201.006442, 343.040000)" fill="#EA9B82" fill-rule="nonzero">
                            <path d="M48.77,5.99 C48.49,7.57 48.21,9.12 47.92,10.64 C44.26,29.78 39.53,44.83 33.5,48.74 C32.940995,49.1175717 32.3223207,49.3981726 31.67,49.57 C31.5356024,49.6095362 31.3986004,49.6396098 31.26,49.66 C30.8320121,49.7435268 30.3944824,49.7670861 29.96,49.73 C25.5241693,49.4650306 21.1478082,48.5762926 16.96,47.09 C6.83,43.24 5.96,36.9 5.96,36.9 L3.03,16.7 L2.01,9.19 L1.18,3.46 L0.73,0.36 C2.98281738,3.89703976 5.48940333,7.26589127 8.23,10.44 C13.35,16.38 20.41,22 28.17,20.87 C31.5694598,20.2073763 34.759374,18.7358998 37.47,16.58 C41.6438911,13.5113192 45.4372941,9.95626276 48.77,5.99 Z" id="Path"></path>
                        </g>
                        <circle id="Oval" fill="#443C32" fill-rule="nonzero" cx="229.436442" cy="58.13" r="1.83"></circle>
                        <circle id="Oval" fill="#443C32" fill-rule="nonzero" cx="250.436442" cy="59.13" r="1.83"></circle>
                        <path d="M222.286442,53.67 C226.365939,52.0057468 230.919661,51.9237299 235.056442,53.44" id="Path" stroke="#574A46" stroke-linecap="round"></path>
                        <path d="M245.816442,52.97 C249.18504,52.3906135 252.642061,52.5994039 255.916442,53.58" id="Path" stroke="#574A46" stroke-linecap="round"></path>
                        <path d="M224.836442,56.46 C224.836442,56.46 229.836442,55.26 231.836442,56.36" id="Path" stroke="#443C32"></path>
                        <path d="M253.836442,57.46 C253.836442,57.46 248.836442,56.26 246.836442,57.36" id="Path" stroke="#443C32"></path>
                    </g>
                    <path d="M34.21,518.43 L34.79,518.57 C34.79,518.57 34.79,518.57 34.79,518.57 L34.21,518.43 Z" id="Path" fill="#F4FAFA" fill-rule="nonzero"></path>
                </g>
            </g>
        </g>
    </g>
</svg>