<svg xmlns="http://www.w3.org/2000/svg" xmlns:xlink="http://www.w3.org/1999/xlink" width="500" zoomAndPan="magnify" viewBox="0 0 375 374.999991" height="500" preserveAspectRatio="xMidYMid meet" version="1.2"><defs><clipPath id="eed9b95e3a"><path d="M 112.480469 64.632812 L 294.46875 64.632812 L 294.46875 246.621094 L 112.480469 246.621094 Z M 112.480469 64.632812 "/></clipPath><clipPath id="0c2dfc54d5"><path d="M 203.472656 64.632812 C 153.21875 64.632812 112.480469 105.371094 112.480469 155.625 C 112.480469 205.882812 153.21875 246.621094 203.472656 246.621094 C 253.726562 246.621094 294.46875 205.882812 294.46875 155.625 C 294.46875 105.371094 253.726562 64.632812 203.472656 64.632812 Z M 203.472656 64.632812 "/></clipPath><clipPath id="d52dd5d831"><path d="M 177.152344 151.710938 L 197.484375 151.710938 L 197.484375 172.046875 L 177.152344 172.046875 Z M 177.152344 151.710938 "/></clipPath><clipPath id="21e02824e6"><path d="M 187.316406 151.710938 C 181.703125 151.710938 177.152344 156.261719 177.152344 161.878906 C 177.152344 167.492188 181.703125 172.046875 187.316406 172.046875 C 192.933594 172.046875 197.484375 167.492188 197.484375 161.878906 C 197.484375 156.261719 192.933594 151.710938 187.316406 151.710938 Z M 187.316406 151.710938 "/></clipPath><clipPath id="42b61481ee"><path d="M 207.003906 158.382812 L 227.335938 158.382812 L 227.335938 178.71875 L 207.003906 178.71875 Z M 207.003906 158.382812 "/></clipPath><clipPath id="679c76e2ed"><path d="M 217.171875 158.382812 C 211.554688 158.382812 207.003906 162.9375 207.003906 168.550781 C 207.003906 174.164062 211.554688 178.71875 217.171875 178.71875 C 222.785156 178.71875 227.335938 174.164062 227.335938 168.550781 C 227.335938 162.9375 222.785156 158.382812 217.171875 158.382812 Z M 217.171875 158.382812 "/></clipPath></defs><g id="70583cce9b"><rect x="0" width="375" y="0" height="374.999991" style="fill:#ffffff;fill-opacity:1;stroke:none;"/><rect x="0" width="375" y="0" height="374.999991" style="fill:#ffffff;fill-opacity:1;stroke:none;"/><g clip-rule="nonzero" clip-path="url(#eed9b95e3a)"><g clip-rule="nonzero" clip-path="url(#0c2dfc54d5)"><path style=" stroke:none;fill-rule:nonzero;fill:#c1ff72;fill-opacity:1;" d="M 112.480469 64.632812 L 294.46875 64.632812 L 294.46875 246.621094 L 112.480469 246.621094 Z M 112.480469 64.632812 "/></g></g><g style="fill:#f1f2f2;fill-opacity:1;"><g transform="translate(142.942512, 184.874464)"><path style="stroke:none" d="M 32.328125 2.203125 C 27.140625 2.054688 22.59375 0.664062 18.6875 -1.96875 C 14.789062 -4.601562 11.785156 -8.492188 9.671875 -13.640625 C 7.566406 -18.796875 6.625 -25.097656 6.84375 -32.546875 C 7.070312 -40.035156 8.421875 -46.285156 10.890625 -51.296875 C 13.359375 -56.316406 16.675781 -60.019531 20.84375 -62.40625 C 25.007812 -64.800781 29.785156 -65.921875 35.171875 -65.765625 C 39.253906 -65.640625 42.769531 -64.828125 45.71875 -63.328125 C 48.664062 -61.835938 51.125 -59.578125 53.09375 -56.546875 L 54.359375 -56.8125 L 55.34375 -90.234375 L 71.78125 -89.75 L 69.0625 2.046875 L 52.625 1.5625 L 52.875 -6.9375 L 51.640625 -7.203125 C 49.722656 -4.171875 47.15625 -1.8125 43.9375 -0.125 C 40.71875 1.5625 36.847656 2.335938 32.328125 2.203125 Z M 38.078125 -11.59375 C 42.710938 -11.457031 46.425781 -13 49.21875 -16.21875 C 52.007812 -19.445312 53.503906 -24.425781 53.703125 -31.15625 C 53.898438 -37.882812 52.703125 -42.953125 50.109375 -46.359375 C 47.515625 -49.765625 43.898438 -51.535156 39.265625 -51.671875 C 34.441406 -51.816406 30.703125 -50.3125 28.046875 -47.15625 C 25.398438 -44.007812 23.972656 -38.972656 23.765625 -32.046875 C 23.566406 -25.148438 24.695312 -20.050781 27.15625 -16.75 C 29.613281 -13.457031 33.253906 -11.738281 38.078125 -11.59375 Z M 38.078125 -11.59375 "/></g></g><g style="fill:#f1f2f2;fill-opacity:1;"><g transform="translate(185.829309, 197.341595)"><path style="stroke:none" d="M 9.453125 26.5625 L 9.453125 -65.53125 L 25.90625 -65.53125 L 25.90625 -56.96875 L 27.15625 -56.734375 C 29.09375 -60.066406 31.6875 -62.570312 34.9375 -64.25 C 38.1875 -65.9375 41.988281 -66.78125 46.34375 -66.78125 C 51.601562 -66.78125 56.203125 -65.53125 60.140625 -63.03125 C 64.085938 -60.539062 67.160156 -56.75 69.359375 -51.65625 C 71.554688 -46.5625 72.65625 -40.253906 72.65625 -32.734375 C 72.65625 -25.242188 71.492188 -18.960938 69.171875 -13.890625 C 66.859375 -8.828125 63.640625 -5.035156 59.515625 -2.515625 C 55.398438 -0.00390625 50.648438 1.25 45.265625 1.25 C 41.191406 1.25 37.664062 0.566406 34.6875 -0.796875 C 31.71875 -2.171875 29.207031 -4.300781 27.15625 -7.1875 L 25.90625 -6.953125 L 25.90625 26.5625 Z M 40.703125 -12.71875 C 45.609375 -12.71875 49.328125 -14.320312 51.859375 -17.53125 C 54.398438 -20.738281 55.671875 -25.804688 55.671875 -32.734375 C 55.671875 -39.660156 54.398438 -44.738281 51.859375 -47.96875 C 49.328125 -51.195312 45.609375 -52.8125 40.703125 -52.8125 C 36.097656 -52.8125 32.445312 -51.144531 29.75 -47.8125 C 27.0625 -44.488281 25.71875 -39.460938 25.71875 -32.734375 C 25.71875 -26.035156 27.0625 -21.023438 29.75 -17.703125 C 32.445312 -14.378906 36.097656 -12.71875 40.703125 -12.71875 Z M 40.703125 -12.71875 "/></g></g><g clip-rule="nonzero" clip-path="url(#d52dd5d831)"><g clip-rule="nonzero" clip-path="url(#21e02824e6)"><path style=" stroke:none;fill-rule:nonzero;fill:#f1f2f2;fill-opacity:1;" d="M 177.152344 151.710938 L 197.484375 151.710938 L 197.484375 172.046875 L 177.152344 172.046875 Z M 177.152344 151.710938 "/></g></g><g clip-rule="nonzero" clip-path="url(#42b61481ee)"><g clip-rule="nonzero" clip-path="url(#679c76e2ed)"><path style=" stroke:none;fill-rule:nonzero;fill:#f1f2f2;fill-opacity:1;" d="M 207.003906 158.382812 L 227.335938 158.382812 L 227.335938 178.71875 L 207.003906 178.71875 Z M 207.003906 158.382812 "/></g></g><path style="fill:none;stroke-width:13;stroke-linecap:round;stroke-linejoin:miter;stroke:#f1f2f2;stroke-opacity:1;stroke-miterlimit:4;" d="M 9.326298 22.616802 C 31.392129 1.09889 53.454461 1.128893 75.515695 22.70219 " transform="matrix(0.665612,-0.345632,0.345632,0.665612,129.50257,120.005397)"/><path style="fill:none;stroke-width:13;stroke-linecap:round;stroke-linejoin:miter;stroke:#f1f2f2;stroke-opacity:1;stroke-miterlimit:4;" d="M 9.419822 21.574328 C 31.779252 1.449937 54.141764 1.471568 76.503943 21.653551 " transform="matrix(0.63883,0.392933,-0.392933,0.63883,229.861938,102.629597)"/><path style="fill:none;stroke-width:18;stroke-linecap:round;stroke-linejoin:miter;stroke:#f1f2f2;stroke-opacity:1;stroke-miterlimit:4;" d="M 8.998613 9.001962 L 103.121483 9.002434 " transform="matrix(0.748938,0.0222411,-0.0222411,0.748938,165.980341,84.143886)"/><path style="fill:none;stroke-width:18;stroke-linecap:round;stroke-linejoin:miter;stroke:#f1f2f2;stroke-opacity:1;stroke-miterlimit:4;" d="M 12.81166 28.424331 C 50.90824 2.506205 89.001952 2.524804 127.101721 28.487611 " transform="matrix(-0.688005,-0.298577,0.298577,-0.688005,224.503408,243.377458)"/></g></svg>