<svg xmlns="http://www.w3.org/2000/svg" xmlns:xlink="http://www.w3.org/1999/xlink" width="500" zoomAndPan="magnify" viewBox="0 0 375 374.999991" height="500" preserveAspectRatio="xMidYMid meet" version="1.2"><defs><clipPath id="89c5dba34d"><path d="M 114.074219 213.042969 L 277.53125 213.042969 L 277.53125 355.855469 L 114.074219 355.855469 Z M 114.074219 213.042969 "/></clipPath><clipPath id="0f4aba64e1"><path d="M 195.683594 355.855469 L 277.289062 213.042969 L 114.074219 213.042969 Z M 195.683594 355.855469 "/></clipPath><clipPath id="ed6cdfeb8d"><path d="M 75.289062 19.144531 L 316 19.144531 L 316 258.777344 L 75.289062 258.777344 Z M 75.289062 19.144531 "/></clipPath><clipPath id="b53bc75ce7"><path d="M 195.683594 19.144531 C 129.191406 19.144531 75.289062 72.789062 75.289062 138.960938 C 75.289062 205.132812 129.191406 258.777344 195.683594 258.777344 C 262.175781 258.777344 316.078125 205.132812 316.078125 138.960938 C 316.078125 72.789062 262.175781 19.144531 195.683594 19.144531 Z M 195.683594 19.144531 "/></clipPath><clipPath id="8c5e95b991"><path d="M 101.816406 39.78125 L 289.925781 39.78125 L 289.925781 238 L 101.816406 238 Z M 101.816406 39.78125 "/></clipPath><clipPath id="38d04f8979"><path d="M 195.871094 39.78125 C 143.925781 39.78125 101.816406 84.050781 101.816406 138.65625 C 101.816406 193.265625 143.925781 237.535156 195.871094 237.535156 C 247.816406 237.535156 289.925781 193.265625 289.925781 138.65625 C 289.925781 84.050781 247.816406 39.78125 195.871094 39.78125 Z M 195.871094 39.78125 "/></clipPath><clipPath id="5d3cf67aca"><path d="M 133.941406 55.628906 L 258.441406 55.628906 L 258.441406 221.378906 L 133.941406 221.378906 Z M 133.941406 55.628906 "/></clipPath><clipPath id="79a78036b0"><path d="M 161.492188 87.847656 L 231.242188 87.847656 L 231.242188 188.347656 L 161.492188 188.347656 Z M 161.492188 87.847656 "/></clipPath><clipPath id="504074446c"><path d="M 95 156.269531 L 150 156.269531 L 150 211 L 95 211 Z M 95 156.269531 "/></clipPath><clipPath id="c71a539011"><path d="M 200 35 L 234 35 L 234 70 L 200 70 Z M 200 35 "/></clipPath><clipPath id="c74bf86d4c"><path d="M 210.347656 82.378906 L 196.441406 39.582031 L 237.097656 26.367188 L 251.003906 69.164062 Z M 210.347656 82.378906 "/></clipPath><clipPath id="252e3566ae"><path d="M 210.347656 82.378906 L 196.441406 39.582031 L 237.097656 26.367188 L 251.003906 69.164062 Z M 210.347656 82.378906 "/></clipPath><clipPath id="1955ee7a4e"><path d="M 225 47 L 249 47 L 249 71 L 225 71 Z M 225 47 "/></clipPath><clipPath id="4e0ae3108d"><path d="M 210.347656 82.378906 L 196.441406 39.582031 L 237.097656 26.367188 L 251.003906 69.164062 Z M 210.347656 82.378906 "/></clipPath><clipPath id="43f1a34b4b"><path d="M 210.347656 82.378906 L 196.441406 39.582031 L 237.097656 26.367188 L 251.003906 69.164062 Z M 210.347656 82.378906 "/></clipPath><clipPath id="13cb4886ab"><path d="M 227 30 L 240 30 L 240 42 L 227 42 Z M 227 30 "/></clipPath><clipPath id="bc2dd34520"><path d="M 210.347656 82.378906 L 196.441406 39.582031 L 237.097656 26.367188 L 251.003906 69.164062 Z M 210.347656 82.378906 "/></clipPath><clipPath id="e334dee558"><path d="M 210.347656 82.378906 L 196.441406 39.582031 L 237.097656 26.367188 L 251.003906 69.164062 Z M 210.347656 82.378906 "/></clipPath><clipPath id="0b090d04d6"><path d="M 226 163 L 278 163 L 278 234 L 226 234 Z M 226 163 "/></clipPath><clipPath id="8fcf216ccd"><path d="M 209.605469 180.761719 L 273.582031 159.234375 L 293.195312 217.519531 L 229.222656 239.050781 Z M 209.605469 180.761719 "/></clipPath><clipPath id="16a2991a54"><path d="M 209.605469 180.761719 L 273.582031 159.234375 L 293.195312 217.519531 L 229.222656 239.050781 Z M 209.605469 180.761719 "/></clipPath><clipPath id="f59a95ef36"><path d="M 89.390625 85.761719 L 138.890625 85.761719 L 138.890625 132.261719 L 89.390625 132.261719 Z M 89.390625 85.761719 "/></clipPath><clipPath id="fcfb7c9da8"><path d="M 172.152344 190.621094 L 207.199219 190.621094 L 207.199219 231.996094 L 172.152344 231.996094 Z M 172.152344 190.621094 "/></clipPath><clipPath id="63ad631d4b"><path d="M 126.679688 32.160156 L 173.351562 32.160156 L 173.351562 79.089844 L 126.679688 79.089844 Z M 126.679688 32.160156 "/></clipPath><clipPath id="08729ffba9"><path d="M 253 89 L 269 89 L 269 127 L 253 127 Z M 253 89 "/></clipPath><clipPath id="7309fa6687"><path d="M 246.816406 140.714844 L 248.390625 82.238281 L 307.621094 83.832031 L 306.046875 142.3125 Z M 246.816406 140.714844 "/></clipPath><clipPath id="207a8073c9"><path d="M 246.816406 140.714844 L 248.390625 82.238281 L 307.621094 83.832031 L 306.046875 142.3125 Z M 246.816406 140.714844 "/></clipPath><clipPath id="4058a373cc"><path d="M 274 91 L 307 91 L 307 110 L 274 110 Z M 274 91 "/></clipPath><clipPath id="6ea3e4ae36"><path d="M 246.816406 140.714844 L 248.390625 82.238281 L 307.621094 83.832031 L 306.046875 142.3125 Z M 246.816406 140.714844 "/></clipPath><clipPath id="f773617c49"><path d="M 246.816406 140.714844 L 248.390625 82.238281 L 307.621094 83.832031 L 306.046875 142.3125 Z M 246.816406 140.714844 "/></clipPath><clipPath id="b66973ff5b"><path d="M 263 85 L 277 85 L 277 121 L 263 121 Z M 263 85 "/></clipPath><clipPath id="ac662fd9e3"><path d="M 246.816406 140.714844 L 248.390625 82.238281 L 307.621094 83.832031 L 306.046875 142.3125 Z M 246.816406 140.714844 "/></clipPath><clipPath id="0033b712e8"><path d="M 246.816406 140.714844 L 248.390625 82.238281 L 307.621094 83.832031 L 306.046875 142.3125 Z M 246.816406 140.714844 "/></clipPath><clipPath id="7eda74c1ab"><path d="M 249 102 L 260 102 L 260 131 L 249 131 Z M 249 102 "/></clipPath><clipPath id="417b080746"><path d="M 246.816406 140.714844 L 248.390625 82.238281 L 307.621094 83.832031 L 306.046875 142.3125 Z M 246.816406 140.714844 "/></clipPath><clipPath id="c5fef6b754"><path d="M 246.816406 140.714844 L 248.390625 82.238281 L 307.621094 83.832031 L 306.046875 142.3125 Z M 246.816406 140.714844 "/></clipPath><clipPath id="5f72023982"><path d="M 256 114 L 289 114 L 289 138 L 256 138 Z M 256 114 "/></clipPath><clipPath id="9e673f9414"><path d="M 246.816406 140.714844 L 248.390625 82.238281 L 307.621094 83.832031 L 306.046875 142.3125 Z M 246.816406 140.714844 "/></clipPath><clipPath id="7bb2eae0ca"><path d="M 246.816406 140.714844 L 248.390625 82.238281 L 307.621094 83.832031 L 306.046875 142.3125 Z M 246.816406 140.714844 "/></clipPath><clipPath id="914dcf1b9a"><path d="M 274 84 L 301 84 L 301 96 L 274 96 Z M 274 84 "/></clipPath><clipPath id="3f7b68277f"><path d="M 246.816406 140.714844 L 248.390625 82.238281 L 307.621094 83.832031 L 306.046875 142.3125 Z M 246.816406 140.714844 "/></clipPath><clipPath id="6c6377975a"><path d="M 246.816406 140.714844 L 248.390625 82.238281 L 307.621094 83.832031 L 306.046875 142.3125 Z M 246.816406 140.714844 "/></clipPath><clipPath id="3be960b8ff"><path d="M 266 116 L 299 116 L 299 142 L 266 142 Z M 266 116 "/></clipPath><clipPath id="98e582fd8e"><path d="M 246.816406 140.714844 L 248.390625 82.238281 L 307.621094 83.832031 L 306.046875 142.3125 Z M 246.816406 140.714844 "/></clipPath><clipPath id="646b62db09"><path d="M 246.816406 140.714844 L 248.390625 82.238281 L 307.621094 83.832031 L 306.046875 142.3125 Z M 246.816406 140.714844 "/></clipPath><clipPath id="7cd0514843"><path d="M 275 102 L 307 102 L 307 123 L 275 123 Z M 275 102 "/></clipPath><clipPath id="69dd916ee3"><path d="M 246.816406 140.714844 L 248.390625 82.238281 L 307.621094 83.832031 L 306.046875 142.3125 Z M 246.816406 140.714844 "/></clipPath><clipPath id="3251064698"><path d="M 246.816406 140.714844 L 248.390625 82.238281 L 307.621094 83.832031 L 306.046875 142.3125 Z M 246.816406 140.714844 "/></clipPath><clipPath id="4a208707e4"><path d="M 282 121 L 305 121 L 305 142 L 282 142 Z M 282 121 "/></clipPath><clipPath id="f768ea2a80"><path d="M 246.816406 140.714844 L 248.390625 82.238281 L 307.621094 83.832031 L 306.046875 142.3125 Z M 246.816406 140.714844 "/></clipPath><clipPath id="ffe7cad4c5"><path d="M 246.816406 140.714844 L 248.390625 82.238281 L 307.621094 83.832031 L 306.046875 142.3125 Z M 246.816406 140.714844 "/></clipPath></defs><g id="9cb29b397e"><g clip-rule="nonzero" clip-path="url(#89c5dba34d)"><g clip-rule="nonzero" clip-path="url(#0f4aba64e1)"><path style=" stroke:none;fill-rule:nonzero;fill:#004aad;fill-opacity:1;" d="M 114.074219 213.042969 L 277.53125 213.042969 L 277.53125 355.855469 L 114.074219 355.855469 Z M 114.074219 213.042969 "/></g></g><g clip-rule="nonzero" clip-path="url(#ed6cdfeb8d)"><g clip-rule="nonzero" clip-path="url(#b53bc75ce7)"><path style=" stroke:none;fill-rule:nonzero;fill:#00bf63;fill-opacity:1;" d="M 75.289062 19.144531 L 315.859375 19.144531 L 315.859375 258.777344 L 75.289062 258.777344 Z M 75.289062 19.144531 "/></g></g><g clip-rule="nonzero" clip-path="url(#8c5e95b991)"><g clip-rule="nonzero" clip-path="url(#38d04f8979)"><path style=" stroke:none;fill-rule:nonzero;fill:#ffffff;fill-opacity:1;" d="M 101.816406 39.78125 L 289.925781 39.78125 L 289.925781 237.445312 L 101.816406 237.445312 Z M 101.816406 39.78125 "/></g></g><g clip-rule="nonzero" clip-path="url(#5d3cf67aca)"><path style=" stroke:none;fill-rule:evenodd;fill:#ffffff;fill-opacity:1;" d="M 196.171875 55.628906 C 212.09375 62.835938 255.660156 64.941406 255.660156 64.941406 C 244.925781 75.136719 240.042969 86.929688 240.042969 100.75 C 240.042969 110.421875 243.675781 118.433594 248.640625 126.5625 C 252.707031 133.21875 258.363281 140.011719 258.363281 151.285156 C 258.363281 169.359375 247.875 183.839844 235.9375 195.039062 C 221.566406 208.527344 204.625 217.417969 196.171875 221.378906 C 187.714844 217.417969 170.773438 208.527344 156.398438 195.039062 C 144.464844 183.839844 133.972656 169.359375 133.972656 151.285156 C 133.972656 140.011719 139.632812 133.21875 143.699219 126.5625 C 148.664062 118.433594 152.296875 110.421875 152.296875 100.75 C 152.296875 86.929688 147.414062 75.136719 136.675781 64.941406 C 136.675781 64.941406 180.242188 62.835938 196.171875 55.628906 Z M 196.171875 55.628906 "/></g><g clip-rule="nonzero" clip-path="url(#79a78036b0)"><path style=" stroke:none;fill-rule:nonzero;fill:#004aad;fill-opacity:1;" d="M 183.003906 166.300781 C 187.09375 167.523438 191.324219 168.179688 195.625 168.238281 L 195.625 188.300781 L 183.003906 188.300781 Z M 231.085938 122.714844 C 231.085938 132.011719 227.464844 140.753906 220.890625 147.328125 C 214.316406 153.90625 205.578125 157.527344 196.277344 157.527344 C 186.980469 157.527344 178.246094 153.90625 171.671875 147.328125 C 165.09375 140.753906 161.492188 132.011719 161.492188 122.714844 L 161.492188 87.902344 L 174.039062 87.902344 L 174.039062 122.714844 C 174.039062 134.957031 184.015625 144.914062 196.257812 144.914062 C 208.496094 144.914062 218.472656 134.957031 218.472656 122.71875 C 218.472656 110.480469 208.511719 100.523438 196.273438 100.523438 L 195.628906 100.523438 L 195.628906 137.964844 C 190.25 137.742188 185.589844 134.707031 183.007812 130.292969 L 183.007812 87.902344 L 196.277344 87.902344 C 205.574219 87.902344 214.316406 91.523438 220.890625 98.097656 C 227.460938 104.671875 231.085938 113.414062 231.085938 122.714844 Z M 231.085938 122.714844 "/></g><g clip-rule="nonzero" clip-path="url(#504074446c)"><path style=" stroke:none;fill-rule:nonzero;fill:#00bf63;fill-opacity:1;" d="M 101.308594 166.945312 C 96.699219 172.625 94.773438 179.691406 95.472656 186.597656 L 105.441406 178.449219 Z M 111.882812 182.472656 L 106.835938 180.039062 L 95.832031 189.03125 C 96.269531 191.28125 96.988281 193.457031 97.976562 195.507812 C 98.070312 195.503906 97.257812 195.480469 112.171875 196.007812 L 115.179688 192.628906 Z M 122.242188 176.125 L 113.984375 182.121094 L 117.140625 191.828125 L 127.34375 191.828125 L 130.496094 182.121094 Z M 122.242188 176.125 L 113.984375 182.121094 L 117.140625 191.828125 L 127.34375 191.828125 L 130.496094 182.121094 Z M 134.6875 159.980469 L 123.296875 168.039062 L 123.296875 174.28125 L 131.847656 180.492188 L 136.949219 178.03125 L 141.59375 165.160156 C 139.667969 163.160156 137.335938 161.367188 134.6875 159.980469 Z M 137.644531 180.039062 L 132.601562 182.472656 L 129.300781 192.628906 L 132.3125 196.007812 C 147.136719 195.484375 146.277344 195.480469 146.496094 195.523438 C 147.488281 193.472656 148.210938 191.300781 148.648438 189.050781 Z M 128.738281 209.96875 C 135.835938 208.21875 141.765625 203.632812 145.351562 197.652344 L 132.628906 198.109375 Z M 127.636719 193.9375 L 116.84375 193.9375 L 113.820312 197.328125 C 118.304688 211.019531 118.113281 210.425781 118.117188 210.441406 C 120.804688 210.855469 123.605469 210.863281 126.367188 210.441406 C 126.367188 210.429688 126.238281 210.824219 130.664062 197.328125 Z M 143.1875 166.960938 L 139.039062 178.453125 L 149.007812 186.617188 C 149.726562 179.5625 147.703125 172.535156 143.1875 166.960938 Z M 112.003906 158.953125 L 122.242188 166.203125 L 132.484375 158.953125 C 125.972656 156.277344 118.523438 156.269531 112.003906 158.953125 Z M 122.242188 176.125 L 113.984375 182.121094 L 117.140625 191.828125 L 127.34375 191.828125 L 130.496094 182.121094 Z M 109.800781 159.980469 C 107.210938 161.332031 104.84375 163.121094 102.902344 165.144531 L 107.535156 178.03125 L 112.632812 180.492188 L 121.1875 174.28125 L 121.1875 168.039062 Z M 111.855469 198.109375 L 99.132812 197.65625 C 102.71875 203.632812 108.636719 208.214844 115.742188 209.96875 Z M 111.855469 198.109375 "/></g><g clip-rule="nonzero" clip-path="url(#c71a539011)"><g clip-rule="nonzero" clip-path="url(#c74bf86d4c)"><g clip-rule="nonzero" clip-path="url(#252e3566ae)"><path style=" stroke:none;fill-rule:nonzero;fill:#00bf63;fill-opacity:1;" d="M 233.136719 47.199219 L 233.125 47.226562 C 232.832031 47.859375 232.5 48.480469 232.183594 49.101562 L 223.390625 66.515625 C 222.859375 67.59375 222.355469 69.277344 221.191406 69.695312 C 219.824219 70.183594 215.984375 69.019531 214.695312 68.550781 C 208.953125 66.460938 203.988281 62.066406 201.871094 56.246094 C 200.042969 50.664062 200.476562 44.78125 204.847656 40.40625 C 208.855469 36.390625 214.519531 34.679688 220.09375 35.265625 C 221.226562 35.382812 224.210938 35.835938 225.011719 36.640625 C 225.117188 36.929688 225.160156 37.246094 225.234375 37.546875 C 226.101562 41.097656 229.035156 43.746094 232.617188 44.320312 C 232.917969 44.367188 233.792969 44.335938 233.917969 44.683594 C 234.179688 45.398438 233.449219 46.566406 233.136719 47.199219 Z M 233.136719 47.199219 "/></g></g></g><g clip-rule="nonzero" clip-path="url(#1955ee7a4e)"><g clip-rule="nonzero" clip-path="url(#4e0ae3108d)"><g clip-rule="nonzero" clip-path="url(#43f1a34b4b)"><path style=" stroke:none;fill-rule:nonzero;fill:#00bf63;fill-opacity:1;" d="M 240.316406 59.984375 L 245.660156 62.390625 C 246.804688 62.914062 249.160156 63.488281 248.691406 65.222656 C 248.460938 66.082031 247.898438 66.980469 247.496094 67.777344 C 245.949219 70.804688 245.683594 70.71875 243.054688 69.167969 L 237.796875 66.097656 C 237.046875 65.667969 236.144531 65.011719 235.320312 64.777344 C 231.726562 63.753906 228.730469 68.148438 225 68.835938 C 225.03125 68.417969 225.53125 67.6875 225.726562 67.304688 L 231.566406 55.707031 C 232.972656 52.9375 234.398438 50.175781 235.71875 47.367188 C 236.839844 50.433594 235.472656 54.066406 236.492188 56.707031 C 237.273438 58.714844 238.507812 59.179688 240.316406 59.984375 Z M 240.316406 59.984375 "/></g></g></g><g clip-rule="nonzero" clip-path="url(#13cb4886ab)"><g clip-rule="nonzero" clip-path="url(#bc2dd34520)"><g clip-rule="nonzero" clip-path="url(#e334dee558)"><path style=" stroke:none;fill-rule:nonzero;fill:#00bf63;fill-opacity:1;" d="M 238.796875 33.726562 L 238.832031 33.808594 C 240.050781 36.707031 238.582031 40.125 235.699219 41.324219 C 232.796875 42.535156 229.441406 41.058594 228.238281 38.179688 C 227.671875 36.753906 227.617188 35.21875 228.203125 33.785156 C 230.136719 29.035156 236.878906 29.097656 238.796875 33.726562 Z M 238.796875 33.726562 "/></g></g></g><g clip-rule="nonzero" clip-path="url(#0b090d04d6)"><g clip-rule="nonzero" clip-path="url(#8fcf216ccd)"><g clip-rule="nonzero" clip-path="url(#16a2991a54)"><path style=" stroke:none;fill-rule:nonzero;fill:#00bf63;fill-opacity:1;" d="M 257.40625 206.570312 C 257.691406 207.261719 257.90625 207.972656 258.046875 208.707031 C 258.191406 209.441406 258.261719 210.183594 258.257812 210.933594 C 258.253906 211.679688 258.179688 212.421875 258.027344 213.152344 C 257.878906 213.886719 257.660156 214.597656 257.371094 215.289062 C 257.082031 215.976562 256.730469 216.632812 256.3125 217.253906 C 255.894531 217.875 255.417969 218.449219 254.886719 218.972656 C 254.355469 219.5 253.777344 219.972656 253.15625 220.382812 C 252.53125 220.796875 251.875 221.144531 251.179688 221.429688 C 250.488281 221.710938 249.777344 221.925781 249.042969 222.066406 C 248.308594 222.210938 247.566406 222.28125 246.816406 222.277344 C 246.070312 222.273438 245.328125 222.199219 244.597656 222.050781 C 243.863281 221.902344 243.152344 221.683594 242.460938 221.394531 C 241.773438 221.105469 241.117188 220.75 240.496094 220.332031 C 239.875 219.914062 239.300781 219.441406 238.777344 218.910156 C 238.25 218.378906 237.777344 217.800781 237.367188 217.175781 C 236.953125 216.554688 236.605469 215.894531 236.320312 215.203125 C 236.039062 214.511719 235.824219 213.796875 235.679688 213.0625 C 235.539062 212.328125 235.46875 211.585938 235.472656 210.839844 C 235.472656 210.089844 235.550781 209.351562 235.699219 208.617188 C 235.847656 207.882812 236.066406 207.171875 236.355469 206.484375 C 236.644531 205.792969 237 205.136719 237.417969 204.515625 C 237.835938 203.898438 238.308594 203.324219 238.839844 202.796875 C 239.371094 202.269531 239.949219 201.800781 240.574219 201.386719 C 241.195312 200.972656 241.855469 200.625 242.546875 200.34375 C 243.238281 200.054688 243.953125 199.835938 244.6875 199.6875 C 245.421875 199.542969 246.164062 199.46875 246.914062 199.46875 C 247.664062 199.46875 248.40625 199.542969 249.140625 199.691406 C 249.875 199.839844 250.585938 200.058594 251.277344 200.347656 C 251.96875 200.636719 252.625 200.992188 253.246094 201.414062 C 253.867188 201.832031 254.441406 202.308594 254.96875 202.84375 C 255.492188 203.378906 255.960938 203.957031 256.371094 204.585938 C 256.785156 205.210938 257.128906 205.871094 257.40625 206.570312 Z M 277.445312 171.300781 C 277.445312 171.300781 269.390625 180.09375 267.191406 185.339844 C 265.980469 188.148438 265.261719 191.074219 265.03125 194.121094 C 264.800781 197.171875 265.070312 200.171875 265.84375 203.128906 C 268.441406 214.277344 265.105469 225.582031 254.621094 229.863281 C 253.066406 230.503906 251.460938 230.941406 249.800781 231.183594 C 248.140625 231.425781 246.472656 231.460938 244.804688 231.292969 C 243.132812 231.125 241.507812 230.753906 239.929688 230.1875 C 238.351562 229.617188 236.863281 228.867188 235.46875 227.929688 C 235.769531 229.144531 235.601562 230.292969 234.96875 231.371094 C 234.394531 232.335938 233.574219 232.996094 232.507812 233.351562 C 232.402344 233.386719 232.28125 233.425781 232.171875 233.453125 C 231.847656 233.535156 231.519531 233.578125 231.1875 233.589844 C 230.855469 233.597656 230.527344 233.570312 230.199219 233.507812 C 229.875 233.445312 229.558594 233.347656 229.253906 233.214844 C 228.949219 233.085938 228.660156 232.921875 228.390625 232.726562 C 228.121094 232.53125 227.875 232.308594 227.65625 232.0625 C 227.433594 231.8125 227.242188 231.542969 227.082031 231.253906 C 226.917969 230.960938 226.792969 230.65625 226.695312 230.339844 C 226.601562 230.019531 226.542969 229.695312 226.519531 229.363281 C 226.496094 229.03125 226.507812 228.703125 226.554688 228.371094 C 226.605469 228.042969 226.6875 227.722656 226.804688 227.414062 C 226.925781 227.101562 227.074219 226.808594 227.257812 226.53125 C 227.441406 226.253906 227.652344 226 227.890625 225.765625 C 228.128906 225.535156 228.390625 225.332031 228.675781 225.160156 C 228.957031 224.984375 229.257812 224.84375 229.570312 224.734375 C 229.886719 224.625 230.207031 224.550781 230.539062 224.515625 C 230.867188 224.476562 231.199219 224.472656 231.53125 224.507812 C 229.972656 222.765625 228.753906 220.8125 227.875 218.648438 C 227.476562 217.667969 227.152344 216.667969 226.910156 215.640625 C 226.664062 214.613281 226.503906 213.574219 226.417969 212.523438 C 226.335938 211.46875 226.332031 210.417969 226.410156 209.367188 C 226.492188 208.3125 226.648438 207.273438 226.890625 206.246094 C 227.128906 205.21875 227.445312 204.214844 227.839844 203.234375 C 228.234375 202.257812 228.703125 201.316406 229.242188 200.40625 C 229.78125 199.5 230.390625 198.640625 231.0625 197.828125 C 231.734375 197.015625 232.464844 196.257812 233.253906 195.558594 L 233.203125 195.550781 L 246.863281 183.804688 L 249.640625 187.59375 L 254.046875 183.332031 L 252.324219 179.105469 L 271.886719 163.722656 Z M 233.25 228.472656 C 233.09375 227.867188 232.75 227.402344 232.214844 227.078125 C 231.671875 226.753906 231.09375 226.671875 230.484375 226.832031 C 230.429688 226.851562 230.371094 226.859375 230.316406 226.875 C 230.046875 226.96875 229.800781 227.109375 229.578125 227.292969 C 229.359375 227.480469 229.179688 227.699219 229.042969 227.953125 C 228.90625 228.207031 228.816406 228.476562 228.78125 228.761719 C 228.746094 229.046875 228.765625 229.332031 228.835938 229.609375 C 229 230.210938 229.347656 230.675781 229.878906 231.003906 C 230.421875 231.320312 231 231.402344 231.609375 231.25 C 231.902344 231.175781 232.167969 231.046875 232.410156 230.863281 C 232.652344 230.683594 232.847656 230.460938 233.003906 230.199219 C 233.15625 229.941406 233.253906 229.660156 233.296875 229.363281 C 233.339844 229.0625 233.324219 228.765625 233.25 228.472656 Z M 259.511719 205.714844 C 259.1875 204.917969 258.789062 204.160156 258.320312 203.4375 C 257.851562 202.71875 257.316406 202.046875 256.722656 201.425781 C 256.125 200.804688 255.476562 200.242188 254.773438 199.746094 C 254.074219 199.246094 253.332031 198.820312 252.546875 198.460938 C 251.765625 198.101562 250.957031 197.820312 250.121094 197.613281 C 249.285156 197.410156 248.4375 197.28125 247.574219 197.238281 C 246.714844 197.191406 245.859375 197.226562 245.007812 197.34375 C 244.152344 197.460938 243.320312 197.65625 242.503906 197.929688 C 242.234375 198.019531 241.953125 198.113281 241.679688 198.230469 C 240.867188 198.5625 240.089844 198.96875 239.355469 199.453125 C 238.621094 199.9375 237.9375 200.484375 237.308594 201.097656 C 236.679688 201.710938 236.117188 202.378906 235.617188 203.105469 C 235.117188 203.828125 234.6875 204.589844 234.335938 205.398438 C 233.984375 206.203125 233.710938 207.035156 233.519531 207.890625 C 233.324219 208.75 233.21875 209.617188 233.191406 210.496094 C 233.167969 211.375 233.226562 212.25 233.371094 213.117188 C 233.511719 213.984375 233.738281 214.828125 234.046875 215.652344 C 234.351562 216.476562 234.734375 217.265625 235.191406 218.015625 C 235.652344 218.765625 236.175781 219.464844 236.769531 220.113281 C 237.363281 220.761719 238.015625 221.347656 238.722656 221.871094 C 239.425781 222.394531 240.175781 222.847656 240.972656 223.226562 C 241.765625 223.605469 242.585938 223.902344 243.4375 224.125 C 244.289062 224.34375 245.152344 224.480469 246.03125 224.535156 C 246.910156 224.585938 247.785156 224.554688 248.65625 224.441406 C 249.527344 224.324219 250.378906 224.128906 251.214844 223.847656 C 251.484375 223.757812 251.761719 223.652344 252.039062 223.546875 C 252.867188 223.207031 253.65625 222.789062 254.40625 222.292969 C 255.152344 221.796875 255.847656 221.230469 256.484375 220.597656 C 257.121094 219.96875 257.6875 219.28125 258.191406 218.535156 C 258.691406 217.789062 259.117188 217.003906 259.464844 216.175781 C 259.8125 215.351562 260.074219 214.496094 260.253906 213.617188 C 260.433594 212.738281 260.523438 211.847656 260.527344 210.953125 C 260.53125 210.054688 260.449219 209.164062 260.277344 208.285156 C 260.105469 207.402344 259.851562 206.546875 259.511719 205.714844 Z M 245.0625 178.023438 C 245.210938 178.195312 245.398438 178.316406 245.621094 178.375 C 245.84375 178.4375 246.066406 178.429688 246.285156 178.355469 C 246.425781 178.308594 246.554688 178.234375 246.667969 178.136719 C 246.78125 178.039062 246.875 177.921875 246.941406 177.785156 C 247.007812 177.652344 247.046875 177.507812 247.058594 177.355469 C 247.070312 177.207031 247.050781 177.058594 247.003906 176.914062 C 246.953125 176.773438 246.882812 176.644531 246.78125 176.53125 L 243.796875 173.085938 C 243.699219 172.972656 243.582031 172.878906 243.445312 172.8125 C 243.3125 172.746094 243.167969 172.707031 243.015625 172.695312 C 242.867188 172.683594 242.71875 172.703125 242.578125 172.75 C 242.433594 172.796875 242.304688 172.871094 242.191406 172.972656 C 242.074219 173.070312 241.984375 173.1875 241.917969 173.320312 C 241.851562 173.457031 241.8125 173.601562 241.800781 173.75 C 241.789062 173.902344 241.808594 174.046875 241.855469 174.191406 C 241.902344 174.335938 241.976562 174.464844 242.074219 174.578125 Z M 242.039062 181.3125 C 242.179688 181.371094 242.324219 181.398438 242.476562 181.398438 C 242.625 181.398438 242.769531 181.371094 242.910156 181.3125 C 243.050781 181.253906 243.171875 181.171875 243.28125 181.066406 C 243.386719 180.960938 243.46875 180.835938 243.527344 180.695312 C 243.585938 180.558594 243.613281 180.410156 243.613281 180.261719 C 243.613281 180.109375 243.585938 179.964844 243.527344 179.824219 C 243.472656 179.683594 243.390625 179.5625 243.28125 179.457031 C 243.175781 179.347656 243.050781 179.265625 242.914062 179.207031 L 238.207031 177.253906 C 238.066406 177.195312 237.921875 177.167969 237.769531 177.167969 C 237.621094 177.167969 237.476562 177.195312 237.335938 177.253906 C 237.195312 177.3125 237.070312 177.394531 236.964844 177.5 C 236.859375 177.605469 236.777344 177.730469 236.71875 177.871094 C 236.660156 178.007812 236.628906 178.15625 236.628906 178.304688 C 236.628906 178.457031 236.660156 178.601562 236.71875 178.742188 C 236.773438 178.882812 236.855469 179.003906 236.964844 179.113281 C 237.070312 179.21875 237.191406 179.300781 237.332031 179.359375 Z M 249.648438 175.398438 C 249.675781 175.390625 249.703125 175.382812 249.730469 175.371094 C 250.011719 175.277344 250.222656 175.097656 250.367188 174.835938 C 250.507812 174.574219 250.542969 174.300781 250.46875 174.011719 L 249.207031 169.074219 C 249.171875 168.925781 249.109375 168.789062 249.019531 168.664062 C 248.929688 168.542969 248.820312 168.441406 248.6875 168.359375 C 248.558594 168.28125 248.417969 168.230469 248.265625 168.207031 C 248.113281 168.183594 247.964844 168.191406 247.816406 168.230469 C 247.667969 168.269531 247.53125 168.332031 247.410156 168.425781 C 247.289062 168.519531 247.1875 168.632812 247.113281 168.761719 C 247.035156 168.894531 246.988281 169.039062 246.96875 169.191406 C 246.949219 169.339844 246.960938 169.492188 247 169.636719 L 248.261719 174.574219 C 248.296875 174.722656 248.363281 174.855469 248.453125 174.976562 C 248.542969 175.097656 248.652344 175.195312 248.785156 175.273438 C 248.914062 175.351562 249.054688 175.398438 249.203125 175.421875 C 249.351562 175.441406 249.5 175.433594 249.648438 175.398438 Z M 249.648438 175.398438 "/></g></g></g><path style=" stroke:none;fill-rule:evenodd;fill:#00bf63;fill-opacity:1;" d="M 117.339844 106.046875 C 116.941406 106.054688 116.523438 106.066406 116.089844 106.070312 L 116.089844 105.589844 C 116.089844 105.328125 115.871094 105.109375 115.605469 105.109375 L 112.308594 105.109375 C 112.035156 105.109375 111.8125 105.328125 111.8125 105.601562 L 111.8125 106.097656 C 111.421875 106.089844 111.03125 106.085938 110.660156 106.082031 C 109.949219 105.378906 109.238281 104.996094 108.519531 104.929688 L 108.519531 103.710938 L 104.824219 103.710938 L 104.824219 104.929688 C 99.582031 106.992188 96.855469 119.554688 100.726562 121.066406 C 104.957031 122.730469 109.378906 118.292969 111.269531 114.238281 C 111.550781 114.238281 111.824219 114.238281 112.085938 114.238281 L 112.085938 114.738281 L 115.78125 114.738281 L 115.78125 114.238281 C 116.316406 114.238281 116.578125 114.238281 116.578125 114.238281 C 118.46875 118.292969 123.054688 123.207031 127.128906 121.03125 C 130.789062 119.082031 128.492188 107.824219 123.183594 104.832031 L 123.183594 103.613281 L 119.488281 103.613281 L 119.488281 104.832031 C 118.703125 104.988281 117.796875 105.480469 117.339844 106.046875 Z M 117.339844 106.046875 "/><path style=" stroke:none;fill-rule:evenodd;fill:#00bf63;fill-opacity:1;" d="M 105.523438 109.46875 L 105.523438 109.511719 L 103.890625 109.511719 C 103.863281 109.511719 103.832031 109.515625 103.800781 109.523438 C 103.777344 109.539062 103.75 109.554688 103.726562 109.574219 C 103.703125 109.601562 103.691406 109.625 103.675781 109.652344 C 103.664062 109.679688 103.660156 109.710938 103.660156 109.742188 L 103.660156 111.046875 C 103.660156 111.078125 103.664062 111.109375 103.675781 111.132812 C 103.691406 111.164062 103.703125 111.1875 103.726562 111.210938 C 103.75 111.230469 103.777344 111.25 103.800781 111.257812 C 103.832031 111.269531 103.863281 111.28125 103.890625 111.28125 L 105.53125 111.28125 L 105.53125 111.292969 L 105.554688 111.292969 L 105.554688 112.945312 C 105.554688 112.972656 105.5625 113.003906 105.574219 113.03125 C 105.585938 113.058594 105.601562 113.085938 105.625 113.105469 C 105.667969 113.152344 105.726562 113.175781 105.789062 113.175781 L 107.09375 113.175781 C 107.125 113.175781 107.152344 113.171875 107.179688 113.15625 C 107.210938 113.144531 107.234375 113.128906 107.253906 113.105469 C 107.28125 113.085938 107.296875 113.058594 107.304688 113.03125 C 107.320312 113.003906 107.324219 112.972656 107.324219 112.945312 L 107.324219 111.292969 L 107.355469 111.292969 L 107.355469 111.28125 L 108.988281 111.28125 C 109.019531 111.28125 109.050781 111.269531 109.082031 111.257812 C 109.105469 111.25 109.128906 111.230469 109.15625 111.210938 C 109.195312 111.164062 109.222656 111.109375 109.222656 111.046875 L 109.222656 109.742188 C 109.222656 109.710938 109.214844 109.679688 109.207031 109.652344 C 109.191406 109.625 109.175781 109.601562 109.15625 109.574219 C 109.109375 109.535156 109.054688 109.511719 108.988281 109.511719 L 107.351562 109.511719 L 107.351562 109.46875 L 107.324219 109.46875 L 107.324219 107.839844 C 107.324219 107.816406 107.320312 107.785156 107.304688 107.753906 C 107.296875 107.730469 107.28125 107.699219 107.253906 107.679688 C 107.214844 107.640625 107.152344 107.613281 107.09375 107.613281 L 105.789062 107.613281 C 105.757812 107.613281 105.726562 107.617188 105.703125 107.628906 C 105.671875 107.640625 105.644531 107.660156 105.625 107.679688 C 105.601562 107.699219 105.585938 107.730469 105.574219 107.753906 C 105.5625 107.785156 105.554688 107.816406 105.554688 107.839844 L 105.554688 109.46875 Z M 105.523438 109.46875 "/><path style=" stroke:none;fill-rule:evenodd;fill:#00bf63;fill-opacity:1;" d="M 121.460938 111.199219 C 122.066406 111.199219 122.558594 111.691406 122.558594 112.296875 C 122.558594 112.902344 122.066406 113.390625 121.460938 113.390625 C 120.855469 113.390625 120.367188 112.902344 120.367188 112.296875 C 120.367188 111.691406 120.855469 111.199219 121.460938 111.199219 Z M 121.460938 111.199219 "/><path style=" stroke:none;fill-rule:evenodd;fill:#00bf63;fill-opacity:1;" d="M 122.386719 110.269531 C 122.386719 109.667969 122.875 109.175781 123.488281 109.175781 C 124.089844 109.175781 124.582031 109.667969 124.582031 110.269531 C 124.582031 110.875 124.089844 111.371094 123.488281 111.371094 C 122.875 111.371094 122.386719 110.875 122.386719 110.269531 Z M 122.386719 110.269531 "/><path style=" stroke:none;fill-rule:evenodd;fill:#00bf63;fill-opacity:1;" d="M 121.460938 107.15625 C 122.066406 107.15625 122.558594 107.644531 122.558594 108.25 C 122.558594 108.855469 122.066406 109.347656 121.460938 109.347656 C 120.855469 109.347656 120.367188 108.855469 120.367188 108.25 C 120.367188 107.644531 120.855469 107.15625 121.460938 107.15625 Z M 121.460938 107.15625 "/><path style=" stroke:none;fill-rule:evenodd;fill:#00bf63;fill-opacity:1;" d="M 118.34375 110.269531 C 118.34375 109.667969 118.832031 109.175781 119.4375 109.175781 C 120.042969 109.175781 120.535156 109.667969 120.535156 110.269531 C 120.535156 110.875 120.042969 111.371094 119.4375 111.371094 C 118.832031 111.371094 118.34375 110.875 118.34375 110.269531 Z M 118.34375 110.269531 "/><g clip-rule="nonzero" clip-path="url(#f59a95ef36)"><path style=" stroke:none;fill-rule:evenodd;fill:#00bf63;fill-opacity:1;" d="M 97.28125 122.273438 C 97.121094 122.433594 96.886719 122.539062 96.640625 122.539062 C 96.394531 122.539062 96.160156 122.433594 96 122.273438 C 95.832031 122.105469 95.734375 121.878906 95.734375 121.625 L 95.734375 120.246094 L 94.972656 120.667969 C 94.757812 120.785156 94.539062 120.871094 94.3125 120.929688 C 94.078125 120.992188 93.84375 121.023438 93.605469 121.023438 C 93.054688 121.023438 92.535156 120.867188 92.09375 120.582031 C 91.648438 120.300781 91.28125 119.890625 91.042969 119.402344 L 90.972656 119.257812 L 90.832031 119.175781 C 90.386719 118.925781 90.03125 118.5625 89.777344 118.132812 C 89.53125 117.707031 89.390625 117.21875 89.390625 116.710938 L 89.390625 110.039062 C 89.390625 109.53125 89.53125 109.039062 89.777344 108.617188 C 90.03125 108.1875 90.386719 107.824219 90.832031 107.574219 L 90.972656 107.492188 L 91.042969 107.351562 C 91.28125 106.859375 91.648438 106.449219 92.09375 106.167969 C 92.535156 105.890625 93.054688 105.726562 93.605469 105.726562 C 93.78125 105.726562 93.957031 105.742188 94.128906 105.777344 C 94.304688 105.8125 94.472656 105.859375 94.636719 105.925781 L 95.339844 106.203125 L 95.339844 101.824219 C 95.339844 97.429688 97.132812 93.433594 100.035156 90.535156 C 102.929688 87.640625 106.925781 85.839844 111.320312 85.839844 L 116.996094 85.839844 C 121.601562 85.839844 125.785156 87.726562 128.820312 90.757812 C 131.851562 93.792969 133.738281 97.976562 133.738281 102.582031 L 133.738281 105.722656 L 134.242188 105.726562 C 134.78125 105.738281 135.296875 105.898438 135.734375 106.175781 C 136.171875 106.460938 136.535156 106.863281 136.769531 107.351562 L 136.839844 107.492188 L 136.980469 107.574219 C 137.425781 107.824219 137.789062 108.1875 138.035156 108.617188 C 138.285156 109.039062 138.421875 109.53125 138.421875 110.039062 L 138.421875 116.710938 C 138.421875 117.21875 138.285156 117.707031 138.035156 118.132812 C 137.789062 118.5625 137.425781 118.925781 136.980469 119.175781 L 136.839844 119.257812 L 136.769531 119.398438 C 136.535156 119.890625 136.167969 120.300781 135.71875 120.582031 C 135.277344 120.867188 134.757812 121.023438 134.207031 121.023438 C 134.105469 121.023438 134 121.015625 133.890625 121 C 133.785156 120.992188 133.675781 120.972656 133.578125 120.949219 L 132.953125 120.804688 L 132.953125 122.398438 C 132.953125 125.082031 131.851562 127.523438 130.082031 129.292969 C 128.3125 131.0625 125.871094 132.160156 123.1875 132.160156 L 112.488281 132.160156 C 112.160156 132.160156 111.863281 132.023438 111.648438 131.808594 C 111.429688 131.589844 111.292969 131.292969 111.292969 130.964844 C 111.292969 130.636719 111.429688 130.339844 111.648438 130.125 C 111.863281 129.90625 112.160156 129.769531 112.488281 129.769531 L 125.171875 129.769531 C 127.058594 129.769531 128.785156 129.023438 130.066406 127.808594 C 131.351562 126.589844 132.183594 124.898438 132.285156 123.019531 L 132.320312 122.296875 L 131.628906 122.5 C 131.585938 122.515625 131.542969 122.519531 131.5 122.53125 C 131.457031 122.535156 131.414062 122.539062 131.375 122.539062 C 131.121094 122.539062 130.894531 122.433594 130.726562 122.273438 C 130.566406 122.105469 130.460938 121.878906 130.460938 121.625 L 130.460938 105.121094 C 130.460938 104.871094 130.566406 104.644531 130.726562 104.484375 C 130.894531 104.316406 131.121094 104.214844 131.375 104.214844 C 131.414062 104.214844 131.457031 104.214844 131.503906 104.226562 C 131.542969 104.230469 131.589844 104.242188 131.628906 104.25 L 132.289062 104.457031 L 132.289062 102.597656 C 132.289062 98.304688 130.535156 94.40625 127.710938 91.578125 C 124.882812 88.75 120.980469 86.996094 116.6875 86.996094 L 111.722656 86.996094 C 107.613281 86.996094 103.882812 88.675781 101.171875 91.382812 C 98.464844 94.089844 96.78125 97.828125 96.78125 101.9375 L 96.78125 104.167969 L 97.054688 104.316406 C 97.207031 104.390625 97.332031 104.511719 97.417969 104.652344 C 97.503906 104.789062 97.546875 104.957031 97.546875 105.121094 L 97.546875 121.625 C 97.546875 121.878906 97.449219 122.105469 97.28125 122.273438 Z M 97.28125 122.273438 "/></g><g clip-rule="nonzero" clip-path="url(#fcfb7c9da8)"><path style=" stroke:none;fill-rule:nonzero;fill:#00bf63;fill-opacity:1;" d="M 189.328125 199.921875 C 197.324219 199.730469 203.964844 206.054688 204.152344 214.050781 C 204.15625 214.191406 204.15625 214.332031 204.15625 214.472656 C 204.199219 222.472656 197.746094 228.984375 189.75 229.027344 C 181.746094 229.066406 175.230469 222.613281 175.195312 214.613281 C 175.195312 214.570312 175.195312 214.519531 175.195312 214.472656 C 175.152344 206.578125 181.441406 200.109375 189.328125 199.921875 Z M 185.625 190.625 C 184.773438 190.636719 184.097656 191.34375 184.113281 192.195312 C 184.132812 193.023438 184.800781 193.691406 185.625 193.707031 L 188.15625 193.707031 L 188.15625 197.019531 C 185.132812 197.28125 182.226562 198.328125 179.722656 200.050781 L 178.074219 198.421875 C 177.316406 197.667969 176.097656 197.640625 175.300781 198.351562 C 174.859375 198.746094 174.433594 199.15625 174.027344 199.585938 C 173.269531 200.386719 173.289062 201.648438 174.070312 202.421875 L 175.644531 203.980469 C 169.851562 211.730469 171.433594 222.707031 179.183594 228.503906 C 186.933594 234.300781 197.917969 232.714844 203.710938 224.964844 C 208.363281 218.742188 208.363281 210.203125 203.710938 203.980469 L 205.28125 202.421875 C 206.066406 201.648438 206.085938 200.386719 205.328125 199.585938 C 204.921875 199.15625 204.496094 198.746094 204.054688 198.351562 C 203.253906 197.640625 202.042969 197.667969 201.28125 198.421875 L 199.632812 200.050781 C 197.132812 198.328125 194.222656 197.28125 191.195312 197.019531 L 191.195312 193.707031 L 193.726562 193.707031 C 194.578125 193.691406 195.253906 192.984375 195.234375 192.132812 C 195.222656 191.308594 194.554688 190.636719 193.726562 190.625 L 185.625 190.625 "/></g><path style=" stroke:none;fill-rule:nonzero;fill:#00bf63;fill-opacity:1;" d="M 184.394531 208.402344 L 182.238281 206.242188 C 182.011719 206.027344 181.660156 206.039062 181.445312 206.265625 C 181.242188 206.476562 181.242188 206.820312 181.445312 207.035156 L 183.605469 209.195312 C 183.832031 209.40625 184.183594 209.398438 184.394531 209.167969 C 184.601562 208.957031 184.601562 208.617188 184.394531 208.402344 "/><path style=" stroke:none;fill-rule:nonzero;fill:#00bf63;fill-opacity:1;" d="M 181.648438 215.03125 C 181.957031 215.011719 182.191406 214.75 182.175781 214.441406 C 182.15625 214.15625 181.933594 213.933594 181.648438 213.914062 L 178.597656 213.914062 C 178.289062 213.933594 178.054688 214.203125 178.074219 214.511719 C 178.089844 214.789062 178.316406 215.011719 178.597656 215.03125 L 181.648438 215.03125 "/><path style=" stroke:none;fill-rule:nonzero;fill:#00bf63;fill-opacity:1;" d="M 180.976562 222.210938 C 185.25 227.011719 192.605469 227.445312 197.410156 223.171875 C 202.214844 218.902344 202.644531 211.546875 198.375 206.742188 C 196.164062 204.253906 193 202.832031 189.679688 202.832031 L 189.679688 214.472656 L 180.976562 222.210938 "/><g clip-rule="nonzero" clip-path="url(#63ad631d4b)"><path style=" stroke:none;fill-rule:nonzero;fill:#00bf63;fill-opacity:1;" d="M 149.027344 59.996094 C 148.902344 59.929688 148.828125 59.78125 148.847656 59.640625 C 148.859375 59.554688 148.902344 59.5 148.917969 59.476562 C 149.203125 59.171875 149.484375 58.871094 149.765625 58.558594 C 149.859375 58.472656 149.953125 58.4375 150.050781 58.449219 C 150.167969 58.460938 150.257812 58.527344 150.300781 58.589844 C 150.371094 58.683594 150.410156 58.847656 150.292969 59.007812 C 150.289062 59.011719 150.285156 59.015625 150.28125 59.023438 C 150 59.328125 149.71875 59.632812 149.441406 59.929688 C 149.355469 60.003906 149.273438 60.039062 149.1875 60.039062 C 149.132812 60.039062 149.078125 60.023438 149.027344 59.996094 Z M 148.574219 60.839844 C 148.570312 60.84375 148.566406 60.847656 148.558594 60.851562 C 148.269531 61.148438 147.988281 61.441406 147.710938 61.714844 C 147.628906 61.78125 147.546875 61.8125 147.46875 61.8125 C 147.410156 61.8125 147.355469 61.796875 147.300781 61.769531 C 147.175781 61.695312 147.101562 61.550781 147.121094 61.414062 C 147.136719 61.328125 147.179688 61.273438 147.199219 61.25 C 147.492188 60.949219 147.777344 60.664062 148.054688 60.375 C 148.152344 60.292969 148.25 60.261719 148.347656 60.277344 C 148.460938 60.289062 148.546875 60.359375 148.589844 60.417969 C 148.660156 60.515625 148.695312 60.683594 148.574219 60.839844 Z M 146.839844 62.570312 C 146.835938 62.574219 146.828125 62.578125 146.824219 62.582031 C 146.539062 62.859375 146.257812 63.128906 145.976562 63.394531 C 145.894531 63.453125 145.820312 63.480469 145.742188 63.480469 C 145.683594 63.480469 145.621094 63.464844 145.570312 63.433594 C 145.445312 63.359375 145.375 63.214844 145.394531 63.078125 C 145.410156 62.988281 145.457031 62.933594 145.476562 62.914062 C 145.78125 62.625 146.0625 62.355469 146.335938 62.09375 C 146.457031 61.996094 146.5625 61.992188 146.628906 62.003906 C 146.738281 62.023438 146.820312 62.09375 146.863281 62.152344 C 146.929688 62.25 146.964844 62.417969 146.839844 62.570312 Z M 145.105469 64.1875 C 145.101562 64.191406 145.097656 64.195312 145.09375 64.203125 C 144.8125 64.457031 144.527344 64.703125 144.25 64.949219 C 144.167969 65.007812 144.09375 65.03125 144.023438 65.03125 C 143.960938 65.03125 143.894531 65.011719 143.839844 64.976562 C 143.71875 64.898438 143.65625 64.753906 143.679688 64.617188 C 143.695312 64.53125 143.746094 64.476562 143.765625 64.457031 C 144.066406 64.191406 144.34375 63.945312 144.617188 63.699219 C 144.722656 63.621094 144.824219 63.597656 144.921875 63.625 C 145.019531 63.648438 145.097656 63.71875 145.132812 63.773438 C 145.226562 63.902344 145.214844 64.066406 145.105469 64.1875 Z M 143.394531 65.675781 C 143.390625 65.679688 143.382812 65.683594 143.378906 65.691406 C 143.105469 65.917969 142.828125 66.144531 142.550781 66.367188 C 142.472656 66.417969 142.40625 66.4375 142.339844 66.4375 C 142.269531 66.4375 142.203125 66.417969 142.148438 66.378906 C 142.027344 66.296875 141.964844 66.152344 141.992188 66.023438 C 142.011719 65.929688 142.0625 65.875 142.082031 65.855469 C 142.371094 65.625 142.644531 65.398438 142.917969 65.171875 C 143.121094 65.039062 143.332031 65.117188 143.429688 65.261719 C 143.519531 65.394531 143.503906 65.558594 143.394531 65.675781 Z M 141.714844 67.019531 C 141.710938 67.023438 141.703125 67.027344 141.699219 67.03125 C 141.429688 67.238281 141.160156 67.4375 140.894531 67.632812 C 140.820312 67.675781 140.761719 67.6875 140.703125 67.6875 C 140.628906 67.6875 140.558594 67.667969 140.5 67.621094 C 140.386719 67.542969 140.324219 67.402344 140.347656 67.277344 C 140.367188 67.179688 140.421875 67.128906 140.441406 67.105469 C 140.714844 66.90625 140.984375 66.707031 141.257812 66.5 C 141.460938 66.378906 141.664062 66.460938 141.757812 66.605469 C 141.847656 66.742188 141.828125 66.90625 141.714844 67.019531 Z M 140.089844 68.199219 C 140.082031 68.203125 140.078125 68.207031 140.070312 68.210938 C 139.8125 68.390625 139.554688 68.5625 139.296875 68.726562 C 139.226562 68.761719 139.175781 68.773438 139.125 68.773438 C 139.03125 68.773438 138.945312 68.734375 138.875 68.667969 C 138.765625 68.5625 138.730469 68.414062 138.785156 68.289062 C 138.804688 68.25 138.832031 68.214844 138.867188 68.183594 C 139.144531 68.003906 139.398438 67.835938 139.652344 67.664062 C 139.855469 67.554688 140.050781 67.648438 140.136719 67.785156 C 140.230469 67.925781 140.207031 68.089844 140.089844 68.199219 Z M 138.53125 69.199219 C 138.523438 69.203125 138.519531 69.210938 138.511719 69.214844 C 138.265625 69.363281 138.019531 69.503906 137.773438 69.636719 C 137.714844 69.664062 137.671875 69.667969 137.628906 69.667969 C 137.53125 69.667969 137.433594 69.628906 137.363281 69.550781 C 137.261719 69.441406 137.230469 69.300781 137.28125 69.183594 C 137.308594 69.132812 137.339844 69.101562 137.367188 69.082031 C 137.628906 68.933594 137.871094 68.792969 138.117188 68.648438 C 138.339844 68.550781 138.515625 68.679688 138.585938 68.789062 C 138.679688 68.929688 138.65625 69.097656 138.53125 69.199219 Z M 137.058594 70.007812 C 137.050781 70.011719 137.042969 70.019531 137.035156 70.023438 C 136.792969 70.140625 136.5625 70.25 136.339844 70.34375 C 136.289062 70.363281 136.257812 70.367188 136.226562 70.367188 C 136.121094 70.367188 136.015625 70.3125 135.9375 70.222656 C 135.847656 70.109375 135.824219 69.980469 135.875 69.875 C 135.894531 69.832031 135.929688 69.792969 135.976562 69.765625 C 136.226562 69.652344 136.449219 69.546875 136.671875 69.4375 C 136.890625 69.367188 137.058594 69.496094 137.121094 69.597656 C 137.226562 69.761719 137.171875 69.929688 137.058594 70.007812 Z M 135.769531 70.449219 C 135.753906 70.523438 135.707031 70.582031 135.640625 70.621094 C 135.636719 70.625 135.628906 70.628906 135.617188 70.632812 L 135.585938 70.644531 L 135.582031 70.640625 C 135.417969 70.714844 134.960938 70.847656 134.957031 70.851562 C 134.9375 70.855469 134.90625 70.859375 134.886719 70.859375 C 134.707031 70.859375 134.585938 70.71875 134.53125 70.601562 C 134.453125 70.417969 134.554688 70.3125 134.585938 70.28125 C 134.601562 70.269531 134.632812 70.25 134.652344 70.242188 C 134.863281 70.179688 135.253906 70.046875 135.269531 70.039062 C 135.277344 70.035156 135.320312 70.023438 135.328125 70.023438 C 135.550781 69.976562 135.703125 70.171875 135.726562 70.226562 C 135.773438 70.289062 135.789062 70.371094 135.769531 70.449219 Z M 134.535156 70.824219 C 134.515625 70.894531 134.464844 70.953125 134.394531 70.984375 C 134.382812 70.988281 134.371094 70.992188 134.359375 70.996094 C 134.167969 71.035156 133.988281 71.0625 133.808594 71.078125 C 133.589844 71.066406 133.449219 70.882812 133.414062 70.765625 C 133.382812 70.65625 133.414062 70.550781 133.496094 70.488281 C 133.515625 70.476562 133.558594 70.457031 133.582031 70.449219 C 133.773438 70.429688 133.941406 70.402344 134.109375 70.371094 C 134.359375 70.351562 134.496094 70.585938 134.496094 70.585938 C 134.558594 70.675781 134.550781 70.769531 134.535156 70.824219 Z M 150.617188 57.613281 C 150.910156 57.277344 151.183594 56.964844 151.445312 56.660156 C 151.539062 56.570312 151.628906 56.539062 151.734375 56.539062 C 151.882812 56.558594 151.964844 56.65625 151.980469 56.671875 C 152.058594 56.769531 152.097656 56.929688 151.984375 57.09375 C 151.984375 57.097656 151.980469 57.101562 151.976562 57.109375 C 151.699219 57.429688 151.421875 57.746094 151.152344 58.054688 C 151.066406 58.136719 150.976562 58.171875 150.886719 58.171875 C 150.835938 58.171875 150.785156 58.160156 150.738281 58.136719 C 150.609375 58.070312 150.53125 57.925781 150.546875 57.78125 C 150.558594 57.695312 150.597656 57.640625 150.617188 57.613281 Z M 152.273438 55.679688 C 152.554688 55.339844 152.820312 55.015625 153.078125 54.695312 C 153.167969 54.601562 153.265625 54.5625 153.367188 54.566406 C 153.476562 54.574219 153.570312 54.636719 153.613281 54.695312 C 153.6875 54.785156 153.734375 54.949219 153.628906 55.117188 C 153.625 55.121094 153.621094 55.125 153.617188 55.128906 C 153.367188 55.441406 153.105469 55.761719 152.820312 56.105469 C 152.714844 56.214844 152.617188 56.234375 152.550781 56.234375 C 152.5 56.234375 152.453125 56.222656 152.40625 56.199219 C 152.277344 56.136719 152.195312 55.992188 152.210938 55.851562 C 152.214844 55.765625 152.257812 55.707031 152.273438 55.679688 Z M 153.875 53.6875 C 154.136719 53.347656 154.394531 53.015625 154.644531 52.683594 C 154.726562 52.589844 154.820312 52.550781 154.917969 52.546875 C 155.042969 52.550781 155.136719 52.613281 155.183594 52.667969 C 155.269531 52.765625 155.308594 52.9375 155.203125 53.09375 C 155.058594 53.3125 154.863281 53.558594 154.675781 53.792969 C 154.582031 53.90625 154.503906 54.007812 154.433594 54.097656 C 154.347656 54.191406 154.257812 54.230469 154.164062 54.230469 C 154.117188 54.230469 154.074219 54.222656 154.03125 54.203125 C 153.898438 54.144531 153.808594 54.003906 153.816406 53.863281 C 153.820312 53.773438 153.859375 53.714844 153.875 53.6875 Z M 155.402344 51.660156 C 155.652344 51.316406 155.890625 50.980469 156.132812 50.636719 C 156.214844 50.539062 156.308594 50.492188 156.40625 50.492188 C 156.523438 50.492188 156.617188 50.550781 156.667969 50.609375 C 156.75 50.699219 156.800781 50.855469 156.707031 51.023438 C 156.703125 51.027344 156.699219 51.035156 156.695312 51.039062 C 156.460938 51.375 156.21875 51.714844 155.972656 52.050781 C 155.890625 52.148438 155.796875 52.191406 155.699219 52.191406 C 155.660156 52.191406 155.617188 52.183594 155.578125 52.167969 C 155.441406 52.113281 155.347656 51.976562 155.351562 51.832031 C 155.351562 51.746094 155.386719 51.683594 155.402344 51.660156 Z M 156.84375 49.601562 C 157.082031 49.25 157.300781 48.914062 157.515625 48.585938 C 157.519531 48.578125 157.535156 48.554688 157.539062 48.550781 C 157.601562 48.472656 157.691406 48.425781 157.789062 48.421875 C 157.921875 48.429688 158.015625 48.484375 158.058594 48.53125 C 158.140625 48.617188 158.195312 48.769531 158.109375 48.941406 C 158.101562 48.953125 158.089844 48.96875 158.085938 48.976562 C 157.878906 49.296875 157.65625 49.636719 157.425781 49.976562 C 157.34375 50.078125 157.246094 50.128906 157.144531 50.128906 C 157.109375 50.128906 157.070312 50.121094 157.035156 50.105469 C 156.898438 50.058594 156.800781 49.921875 156.800781 49.773438 C 156.800781 49.6875 156.832031 49.628906 156.84375 49.601562 Z M 158.171875 47.550781 C 158.378906 47.207031 158.578125 46.882812 158.765625 46.5625 C 158.839844 46.464844 158.925781 46.414062 159.019531 46.410156 C 159.152344 46.398438 159.253906 46.476562 159.285156 46.507812 C 159.398438 46.617188 159.425781 46.769531 159.363281 46.910156 C 159.363281 46.914062 159.359375 46.921875 159.355469 46.925781 C 159.15625 47.261719 158.957031 47.589844 158.765625 47.90625 C 158.683594 48.015625 158.585938 48.0625 158.480469 48.0625 C 158.449219 48.0625 158.417969 48.058594 158.386719 48.046875 C 158.246094 48.003906 158.140625 47.875 158.132812 47.726562 C 158.128906 47.640625 158.160156 47.574219 158.171875 47.550781 Z M 159.316406 45.609375 C 159.496094 45.285156 159.660156 44.980469 159.820312 44.679688 C 159.90625 44.554688 159.996094 44.523438 160.0625 44.519531 C 160.199219 44.5 160.300781 44.578125 160.339844 44.613281 C 160.449219 44.714844 160.484375 44.863281 160.433594 45 C 160.429688 45.007812 160.425781 45.011719 160.421875 45.019531 C 160.269531 45.3125 160.101562 45.621094 159.921875 45.9375 C 159.847656 46.050781 159.75 46.101562 159.644531 46.101562 C 159.628906 46.101562 159.578125 46.09375 159.566406 46.089844 C 159.425781 46.054688 159.308594 45.925781 159.292969 45.785156 C 159.277344 45.695312 159.304688 45.632812 159.316406 45.609375 Z M 160.277344 43.789062 C 160.433594 43.476562 160.566406 43.191406 160.691406 42.925781 C 160.765625 42.800781 160.855469 42.769531 160.917969 42.757812 C 161.023438 42.746094 161.132812 42.792969 161.195312 42.84375 C 161.199219 42.84375 161.199219 42.847656 161.203125 42.851562 C 161.3125 42.949219 161.355469 43.085938 161.3125 43.214844 C 161.175781 43.519531 161.039062 43.804688 160.894531 44.09375 C 160.890625 44.101562 160.886719 44.109375 160.882812 44.117188 C 160.824219 44.207031 160.726562 44.261719 160.625 44.261719 C 160.613281 44.261719 160.574219 44.257812 160.566406 44.253906 C 160.421875 44.230469 160.296875 44.109375 160.265625 43.96875 C 160.246094 43.882812 160.269531 43.816406 160.277344 43.789062 Z M 161.050781 42.117188 C 161.171875 41.820312 161.277344 41.5625 161.371094 41.316406 C 161.441406 41.1875 161.523438 41.152344 161.585938 41.140625 C 161.699219 41.121094 161.8125 41.175781 161.875 41.226562 C 161.984375 41.316406 162.035156 41.445312 162.007812 41.570312 C 161.898438 41.863281 161.792969 42.125 161.679688 42.386719 C 161.679688 42.394531 161.675781 42.402344 161.671875 42.410156 C 161.613281 42.503906 161.519531 42.558594 161.410156 42.558594 C 161.40625 42.558594 161.382812 42.558594 161.375 42.558594 C 161.234375 42.539062 161.097656 42.425781 161.054688 42.292969 C 161.027344 42.207031 161.042969 42.140625 161.050781 42.117188 Z M 161.640625 40.582031 C 161.726562 40.316406 161.800781 40.085938 161.867188 39.859375 C 161.925781 39.730469 162.003906 39.691406 162.0625 39.675781 C 162.195312 39.648438 162.3125 39.71875 162.355469 39.75 C 162.472656 39.839844 162.527344 39.957031 162.511719 40.074219 C 162.4375 40.335938 162.363281 40.574219 162.28125 40.820312 C 162.277344 40.828125 162.273438 40.835938 162.269531 40.84375 C 162.21875 40.945312 162.121094 41.003906 162.011719 41.003906 C 162.003906 41.003906 161.976562 41.003906 161.96875 41 C 161.8125 40.980469 161.667969 40.84375 161.640625 40.699219 C 161.632812 40.660156 161.632812 40.621094 161.640625 40.582031 Z M 162.171875 38.570312 C 162.210938 38.457031 162.269531 38.398438 162.347656 38.375 C 162.472656 38.339844 162.589844 38.398438 162.652344 38.441406 C 162.664062 38.445312 162.675781 38.457031 162.683594 38.464844 C 162.769531 38.523438 162.824219 38.625 162.824219 38.730469 C 162.785156 38.980469 162.742188 39.191406 162.691406 39.40625 C 162.6875 39.414062 162.683594 39.425781 162.679688 39.433594 C 162.632812 39.542969 162.539062 39.605469 162.425781 39.605469 C 162.261719 39.597656 162.097656 39.46875 162.050781 39.328125 C 162.039062 39.289062 162.039062 39.242188 162.039062 39.214844 C 162.097656 38.96875 162.136719 38.761719 162.171875 38.570312 Z M 163.589844 39.375 C 163.851562 37.78125 163.847656 36.832031 163.109375 36.191406 C 162.835938 35.996094 162.960938 36.09375 162.683594 35.914062 C 162.714844 35.988281 162.742188 36.0625 162.769531 36.140625 C 162.777344 36.160156 162.78125 36.191406 162.78125 36.210938 C 162.78125 36.273438 162.757812 36.332031 162.722656 36.371094 C 162.796875 36.425781 162.847656 36.484375 162.871094 36.550781 C 162.875 36.558594 162.878906 36.570312 162.878906 36.582031 C 162.910156 36.734375 162.929688 36.890625 162.941406 37.058594 C 162.941406 37.074219 162.941406 37.101562 162.9375 37.117188 C 162.921875 37.207031 162.855469 37.277344 162.769531 37.304688 C 162.769531 37.304688 162.769531 37.308594 162.769531 37.308594 C 162.871094 37.375 162.933594 37.460938 162.949219 37.554688 C 162.945312 37.773438 162.933594 37.960938 162.914062 38.148438 C 162.910156 38.160156 162.910156 38.171875 162.90625 38.183594 C 162.871094 38.292969 162.78125 38.367188 162.671875 38.371094 C 162.503906 38.371094 162.339844 38.246094 162.285156 38.128906 C 162.261719 38.082031 162.257812 38.039062 162.257812 38.023438 C 162.277344 37.804688 162.289062 37.632812 162.292969 37.464844 C 162.292969 37.453125 162.296875 37.441406 162.296875 37.429688 C 162.328125 37.308594 162.410156 37.261719 162.457031 37.246094 C 162.460938 37.242188 162.46875 37.242188 162.472656 37.238281 C 162.410156 37.199219 162.359375 37.148438 162.332031 37.105469 C 162.316406 37.082031 162.300781 37.054688 162.292969 37.019531 C 162.273438 36.828125 162.257812 36.6875 162.234375 36.554688 C 162.230469 36.535156 162.230469 36.5 162.234375 36.480469 C 162.234375 36.433594 162.257812 36.386719 162.292969 36.351562 C 162.234375 36.308594 162.179688 36.257812 162.152344 36.203125 C 162.097656 36.054688 162.054688 35.949219 162.003906 35.851562 C 161.996094 35.835938 161.984375 35.808594 161.980469 35.789062 C 161.964844 35.710938 161.992188 35.621094 162.058594 35.566406 C 162.070312 35.558594 162.082031 35.550781 162.09375 35.542969 C 152.359375 29.648438 139.828125 31.582031 132.316406 40.371094 C 124.710938 49.265625 124.84375 62.164062 132.453125 70.863281 C 132.421875 70.824219 132.398438 70.78125 132.386719 70.746094 C 132.359375 70.667969 132.371094 70.589844 132.414062 70.527344 C 132.441406 70.484375 132.511719 70.4375 132.5625 70.429688 C 132.59375 70.425781 132.625 70.421875 132.664062 70.433594 C 132.765625 70.449219 132.898438 70.460938 133.035156 70.464844 C 133.210938 70.496094 133.316406 70.632812 133.34375 70.671875 C 133.371094 70.707031 133.445312 70.820312 133.398438 70.949219 C 133.398438 70.949219 133.394531 70.949219 133.394531 70.949219 C 133.367188 71.023438 133.300781 71.078125 133.222656 71.09375 C 133.210938 71.097656 133.199219 71.097656 133.183594 71.101562 C 133.015625 71.097656 132.863281 71.085938 132.714844 71.0625 C 132.640625 71.035156 132.570312 70.988281 132.515625 70.933594 C 132.765625 71.214844 132.554688 71 132.820312 71.273438 C 133.492188 71.9375 134.746094 71.964844 136.441406 71.347656 C 146.90625 67.046875 162.21875 47.828125 163.589844 39.375 Z M 166.046875 48.746094 C 165.894531 48.71875 165.792969 48.578125 165.765625 48.460938 C 165.742188 48.355469 165.769531 48.28125 165.78125 48.25 C 165.929688 47.949219 166.066406 47.664062 166.195312 47.375 C 166.261719 47.265625 166.34375 47.214844 166.441406 47.210938 C 166.558594 47.203125 166.664062 47.28125 166.71875 47.359375 C 166.792969 47.460938 166.816406 47.589844 166.777344 47.707031 C 166.773438 47.710938 166.769531 47.71875 166.769531 47.726562 C 166.636719 48.011719 166.5 48.300781 166.355469 48.589844 C 166.289062 48.699219 166.195312 48.75 166.097656 48.75 C 166.085938 48.75 166.054688 48.746094 166.046875 48.746094 Z M 165.886719 49.5 C 165.886719 49.507812 165.882812 49.515625 165.878906 49.519531 C 165.714844 49.828125 165.546875 50.140625 165.375 50.449219 C 165.300781 50.554688 165.210938 50.605469 165.109375 50.605469 C 165.09375 50.605469 165.054688 50.601562 165.042969 50.597656 C 164.890625 50.5625 164.800781 50.417969 164.78125 50.300781 C 164.761719 50.195312 164.792969 50.121094 164.808594 50.085938 C 164.992188 49.753906 165.160156 49.445312 165.316406 49.152344 C 165.378906 49.054688 165.457031 49.007812 165.554688 48.992188 C 165.695312 48.996094 165.792969 49.066406 165.84375 49.136719 C 165.917969 49.242188 165.933594 49.378906 165.886719 49.5 Z M 164.808594 51.429688 C 164.808594 51.4375 164.804688 51.441406 164.800781 51.445312 C 164.613281 51.769531 164.410156 52.101562 164.203125 52.433594 C 164.125 52.539062 164.035156 52.585938 163.933594 52.585938 C 163.917969 52.585938 163.871094 52.582031 163.855469 52.578125 C 163.722656 52.539062 163.621094 52.417969 163.605469 52.273438 C 163.59375 52.164062 163.628906 52.089844 163.648438 52.054688 C 163.855469 51.714844 164.054688 51.386719 164.246094 51.0625 C 164.324219 50.957031 164.429688 50.910156 164.519531 50.90625 C 164.660156 50.910156 164.75 51.015625 164.773438 51.046875 C 164.855469 51.164062 164.867188 51.304688 164.808594 51.429688 Z M 163.542969 53.480469 C 163.539062 53.488281 163.535156 53.496094 163.527344 53.503906 C 163.527344 53.507812 163.527344 53.507812 163.523438 53.511719 C 163.3125 53.839844 163.085938 54.179688 162.855469 54.523438 C 162.773438 54.625 162.679688 54.671875 162.582031 54.671875 C 162.550781 54.671875 162.519531 54.667969 162.492188 54.65625 C 162.359375 54.617188 162.265625 54.492188 162.253906 54.351562 C 162.246094 54.238281 162.285156 54.167969 162.304688 54.128906 C 162.542969 53.78125 162.765625 53.441406 162.980469 53.105469 C 162.984375 53.101562 163 53.078125 163.003906 53.074219 C 163.070312 52.992188 163.160156 52.945312 163.257812 52.945312 C 163.386719 52.949219 163.476562 53.019531 163.523438 53.085938 C 163.601562 53.203125 163.609375 53.347656 163.542969 53.480469 Z M 162.128906 55.582031 C 162.125 55.585938 162.121094 55.589844 162.121094 55.59375 C 161.871094 55.949219 161.625 56.292969 161.386719 56.617188 C 161.308594 56.714844 161.214844 56.757812 161.117188 56.757812 C 161.085938 56.757812 161.050781 56.753906 161.019531 56.742188 C 160.890625 56.699219 160.800781 56.578125 160.789062 56.4375 C 160.78125 56.328125 160.824219 56.25 160.84375 56.214844 C 161.117188 55.84375 161.351562 55.511719 161.582031 55.1875 C 161.703125 55.042969 161.820312 55.035156 161.882812 55.042969 C 161.980469 55.046875 162.070312 55.117188 162.117188 55.179688 C 162.199219 55.296875 162.203125 55.449219 162.128906 55.582031 Z M 160.613281 57.664062 C 160.613281 57.667969 160.609375 57.671875 160.605469 57.679688 C 160.355469 58.011719 160.097656 58.347656 159.835938 58.6875 C 159.75 58.777344 159.65625 58.820312 159.5625 58.820312 C 159.527344 58.820312 159.492188 58.8125 159.453125 58.800781 C 159.332031 58.753906 159.242188 58.632812 159.234375 58.5 C 159.226562 58.382812 159.273438 58.3125 159.296875 58.277344 C 159.570312 57.921875 159.828125 57.585938 160.074219 57.257812 C 160.1875 57.132812 160.300781 57.125 160.335938 57.121094 C 160.460938 57.125 160.550781 57.175781 160.609375 57.253906 C 160.675781 57.347656 160.714844 57.503906 160.613281 57.664062 Z M 159.023438 59.710938 C 159.019531 59.714844 159.015625 59.722656 159.011719 59.726562 C 158.746094 60.054688 158.476562 60.382812 158.207031 60.710938 C 158.121094 60.796875 158.027344 60.839844 157.933594 60.839844 C 157.894531 60.839844 157.855469 60.832031 157.816406 60.816406 C 157.691406 60.765625 157.609375 60.648438 157.605469 60.511719 C 157.601562 60.398438 157.652344 60.324219 157.675781 60.289062 C 157.960938 59.945312 158.230469 59.617188 158.488281 59.296875 C 158.578125 59.203125 158.671875 59.167969 158.769531 59.164062 C 158.890625 59.175781 158.980469 59.242188 159.023438 59.300781 C 159.089844 59.394531 159.128906 59.550781 159.023438 59.710938 Z M 157.363281 61.710938 C 157.359375 61.714844 157.355469 61.71875 157.351562 61.722656 C 157.078125 62.042969 156.796875 62.363281 156.523438 62.679688 C 156.4375 62.757812 156.34375 62.796875 156.253906 62.796875 C 156.210938 62.796875 156.167969 62.789062 156.125 62.773438 C 156.003906 62.71875 155.925781 62.601562 155.921875 62.472656 C 155.917969 62.335938 155.917969 62.335938 156.835938 61.285156 C 156.960938 61.160156 157.078125 61.15625 157.136719 61.164062 C 157.242188 61.175781 157.324219 61.238281 157.367188 61.296875 C 157.4375 61.386719 157.476562 61.546875 157.363281 61.710938 Z M 155.65625 63.640625 C 155.652344 63.644531 155.648438 63.652344 155.644531 63.65625 C 155.359375 63.96875 155.074219 64.273438 154.796875 64.570312 C 154.710938 64.644531 154.625 64.679688 154.535156 64.679688 C 154.488281 64.679688 154.441406 64.671875 154.398438 64.652344 C 154.28125 64.601562 154.203125 64.484375 154.199219 64.355469 C 154.195312 64.238281 154.253906 64.164062 154.277344 64.132812 C 154.578125 63.8125 154.859375 63.507812 155.132812 63.210938 C 155.230469 63.117188 155.332031 63.082031 155.4375 63.09375 C 155.539062 63.105469 155.621094 63.167969 155.664062 63.21875 C 155.734375 63.3125 155.777344 63.476562 155.65625 63.640625 Z M 153.917969 65.488281 C 153.914062 65.492188 153.910156 65.496094 153.90625 65.5 C 153.601562 65.816406 153.320312 66.097656 153.050781 66.371094 C 152.964844 66.441406 152.882812 66.472656 152.796875 66.472656 C 152.734375 66.472656 152.679688 66.457031 152.625 66.425781 C 152.503906 66.355469 152.4375 66.222656 152.457031 66.089844 C 152.476562 66 152.519531 65.945312 152.539062 65.925781 C 152.839844 65.625 153.125 65.335938 153.402344 65.046875 C 153.535156 64.933594 153.652344 64.933594 153.710938 64.945312 C 153.832031 64.960938 153.90625 65.039062 153.925781 65.0625 C 154.003906 65.160156 154.046875 65.328125 153.917969 65.488281 Z M 152.167969 67.238281 C 152.164062 67.242188 152.160156 67.246094 152.15625 67.25 C 151.867188 67.527344 151.578125 67.800781 151.296875 68.066406 C 151.210938 68.128906 151.132812 68.160156 151.050781 68.160156 C 150.988281 68.160156 150.925781 68.140625 150.871094 68.109375 C 150.75 68.035156 150.6875 67.90625 150.710938 67.777344 C 150.726562 67.6875 150.773438 67.632812 150.792969 67.613281 C 151.085938 67.335938 151.375 67.0625 151.660156 66.789062 C 151.757812 66.707031 151.855469 66.679688 151.957031 66.691406 C 152.078125 66.710938 152.152344 66.785156 152.171875 66.804688 C 152.265625 66.914062 152.292969 67.085938 152.167969 67.238281 Z M 150.417969 68.867188 C 150.414062 68.871094 150.410156 68.878906 150.40625 68.882812 C 150.125 69.136719 149.839844 69.386719 149.554688 69.636719 C 149.472656 69.695312 149.394531 69.722656 149.316406 69.722656 C 149.246094 69.722656 149.175781 69.699219 149.121094 69.664062 C 149.007812 69.59375 148.949219 69.464844 148.972656 69.339844 C 148.988281 69.25 149.039062 69.199219 149.058594 69.175781 C 149.355469 68.914062 149.640625 68.664062 149.921875 68.410156 C 150.136719 68.25 150.34375 68.347656 150.429688 68.441406 C 150.535156 68.566406 150.535156 68.742188 150.417969 68.867188 Z M 148.691406 70.371094 C 148.6875 70.375 148.679688 70.378906 148.675781 70.382812 C 148.394531 70.621094 148.113281 70.847656 147.839844 71.066406 C 147.757812 71.121094 147.6875 71.140625 147.613281 71.140625 C 147.539062 71.140625 147.464844 71.121094 147.40625 71.078125 C 147.300781 71.007812 147.242188 70.882812 147.261719 70.761719 C 147.28125 70.671875 147.335938 70.617188 147.355469 70.597656 C 147.648438 70.359375 147.925781 70.132812 148.199219 69.902344 C 148.414062 69.753906 148.621094 69.851562 148.699219 69.945312 C 148.816406 70.070312 148.8125 70.246094 148.691406 70.371094 Z M 146.996094 71.726562 C 146.992188 71.730469 146.984375 71.734375 146.980469 71.738281 C 146.710938 71.945312 146.4375 72.148438 146.167969 72.34375 C 146.089844 72.386719 146.027344 72.40625 145.960938 72.40625 C 145.882812 72.40625 145.804688 72.382812 145.738281 72.335938 C 145.632812 72.261719 145.582031 72.148438 145.601562 72.035156 C 145.613281 71.941406 145.671875 71.886719 145.691406 71.867188 C 145.984375 71.648438 146.253906 71.449219 146.515625 71.25 C 146.683594 71.148438 146.863281 71.164062 146.992188 71.28125 C 147.125 71.421875 147.121094 71.601562 146.996094 71.726562 Z M 145.355469 72.914062 C 145.351562 72.921875 145.34375 72.925781 145.335938 72.929688 C 145.066406 73.117188 144.804688 73.289062 144.554688 73.449219 C 144.484375 73.488281 144.429688 73.5 144.367188 73.5 C 144.265625 73.5 144.164062 73.457031 144.089844 73.386719 C 143.996094 73.292969 143.96875 73.167969 144.019531 73.054688 C 144.042969 73.007812 144.078125 72.972656 144.101562 72.953125 C 144.375 72.773438 144.636719 72.601562 144.890625 72.425781 C 145.09375 72.316406 145.28125 72.402344 145.363281 72.480469 C 145.425781 72.542969 145.460938 72.621094 145.457031 72.703125 C 145.457031 72.785156 145.417969 72.859375 145.355469 72.914062 Z M 143.785156 73.925781 C 143.777344 73.933594 143.769531 73.9375 143.765625 73.941406 C 143.511719 74.089844 143.265625 74.234375 143.019531 74.367188 C 142.953125 74.394531 142.90625 74.40625 142.859375 74.40625 C 142.75 74.40625 142.636719 74.355469 142.558594 74.277344 C 142.472656 74.183594 142.449219 74.066406 142.496094 73.964844 C 142.523438 73.90625 142.566406 73.871094 142.585938 73.859375 C 142.847656 73.710938 143.09375 73.570312 143.339844 73.421875 C 143.542969 73.332031 143.714844 73.421875 143.789062 73.488281 C 143.859375 73.554688 143.894531 73.632812 143.890625 73.71875 C 143.890625 73.800781 143.851562 73.875 143.785156 73.925781 Z M 142.296875 74.742188 C 142.289062 74.746094 142.28125 74.753906 142.273438 74.757812 C 142.027344 74.878906 141.792969 74.988281 141.574219 75.082031 C 141.519531 75.097656 141.484375 75.105469 141.445312 75.105469 C 141.320312 75.105469 141.195312 75.046875 141.117188 74.957031 C 141.042969 74.871094 141.023438 74.761719 141.070312 74.664062 C 141.089844 74.617188 141.128906 74.578125 141.179688 74.546875 C 141.421875 74.441406 141.648438 74.335938 141.875 74.222656 C 142.089844 74.148438 142.25 74.261719 142.296875 74.296875 C 142.402344 74.386719 142.417969 74.480469 142.414062 74.539062 C 142.40625 74.621094 142.367188 74.695312 142.296875 74.742188 Z M 140.867188 75.359375 C 140.859375 75.363281 140.855469 75.367188 140.847656 75.371094 L 140.824219 75.382812 C 140.589844 75.464844 140.378906 75.535156 140.175781 75.59375 C 140.160156 75.597656 140.117188 75.601562 140.101562 75.601562 C 139.953125 75.601562 139.808594 75.511719 139.742188 75.425781 C 139.679688 75.351562 139.664062 75.257812 139.695312 75.175781 C 139.714844 75.128906 139.75 75.074219 139.824219 75.039062 C 140.046875 74.972656 140.246094 74.910156 140.453125 74.835938 C 140.460938 74.832031 140.503906 74.816406 140.511719 74.8125 C 140.695312 74.773438 140.851562 74.890625 140.878906 74.914062 C 140.992188 75.003906 141.003906 75.097656 141 75.164062 C 140.992188 75.246094 140.945312 75.316406 140.867188 75.359375 Z M 139.5625 75.605469 C 139.550781 75.691406 139.492188 75.761719 139.410156 75.796875 C 139.398438 75.800781 139.390625 75.804688 139.378906 75.804688 C 139.1875 75.84375 139 75.871094 138.828125 75.890625 C 138.652344 75.886719 138.425781 75.757812 138.382812 75.609375 C 138.355469 75.515625 138.394531 75.40625 138.476562 75.351562 C 138.5 75.335938 138.550781 75.316406 138.574219 75.3125 C 138.746094 75.292969 138.917969 75.269531 139.089844 75.234375 C 139.089844 75.234375 139.132812 75.230469 139.136719 75.230469 C 139.269531 75.230469 139.386719 75.308594 139.433594 75.339844 C 139.558594 75.4375 139.570312 75.539062 139.5625 75.605469 Z M 166.5625 46.546875 C 166.6875 46.253906 166.792969 45.992188 166.886719 45.746094 C 166.945312 45.632812 167.027344 45.578125 167.121094 45.574219 C 167.222656 45.566406 167.324219 45.617188 167.398438 45.714844 C 167.476562 45.820312 167.503906 45.9375 167.476562 46.046875 C 167.472656 46.054688 167.472656 46.0625 167.46875 46.066406 C 167.367188 46.332031 167.261719 46.597656 167.148438 46.863281 C 167.085938 46.980469 166.996094 47.03125 166.894531 47.03125 C 166.714844 47.011719 166.601562 46.875 166.566406 46.753906 C 166.539062 46.660156 166.550781 46.597656 166.5625 46.546875 Z M 167.160156 45 C 167.246094 44.730469 167.320312 44.5 167.386719 44.273438 C 167.4375 44.15625 167.511719 44.097656 167.605469 44.089844 C 167.710938 44.074219 167.816406 44.128906 167.898438 44.234375 C 167.9375 44.289062 168.007812 44.402344 167.984375 44.539062 C 167.910156 44.804688 167.835938 45.042969 167.753906 45.28125 C 167.75 45.289062 167.746094 45.300781 167.742188 45.304688 C 167.695312 45.402344 167.605469 45.460938 167.503906 45.460938 C 167.332031 45.449219 167.21875 45.316406 167.175781 45.191406 C 167.144531 45.105469 167.148438 45.046875 167.160156 45 Z M 167.808594 70.714844 C 175.097656 62.1875 175.109375 49.636719 168.371094 41.070312 C 168.394531 41.214844 168.410156 41.351562 168.421875 41.488281 C 168.410156 41.609375 168.355469 41.6875 168.28125 41.722656 C 168.292969 41.730469 168.300781 41.746094 168.3125 41.757812 C 168.363281 41.816406 168.417969 41.902344 168.429688 42 C 168.425781 42.207031 168.414062 42.394531 168.390625 42.589844 C 168.355469 42.722656 168.273438 42.796875 168.171875 42.804688 C 168.125 42.808594 168.082031 42.800781 168.046875 42.785156 C 168.097656 42.808594 168.148438 42.84375 168.203125 42.914062 C 168.242188 42.960938 168.308594 43.0625 168.304688 43.183594 C 168.265625 43.417969 168.21875 43.632812 168.167969 43.855469 C 168.164062 43.863281 168.164062 43.875 168.160156 43.882812 C 168.117188 43.988281 168.023438 44.050781 167.921875 44.050781 C 167.75 44.050781 167.632812 43.886719 167.59375 43.789062 C 167.5625 43.714844 167.558594 43.660156 167.5625 43.617188 C 167.621094 43.371094 167.664062 43.164062 167.695312 42.96875 C 167.738281 42.839844 167.816406 42.777344 167.914062 42.765625 C 167.9375 42.761719 167.976562 42.761719 168.019531 42.777344 C 167.898438 42.714844 167.835938 42.582031 167.828125 42.5625 C 167.789062 42.492188 167.785156 42.445312 167.78125 42.40625 C 167.804688 42.1875 167.816406 42.011719 167.820312 41.847656 C 167.839844 41.734375 167.894531 41.664062 167.964844 41.632812 C 167.941406 41.609375 167.921875 41.585938 167.90625 41.5625 C 167.855469 41.496094 167.828125 41.4375 167.816406 41.375 C 167.800781 41.203125 167.785156 41.058594 167.761719 40.921875 C 167.757812 40.914062 167.757812 40.886719 167.757812 40.875 C 167.757812 40.808594 167.785156 40.746094 167.835938 40.703125 C 167.835938 40.703125 167.839844 40.699219 167.839844 40.699219 C 167.894531 40.65625 167.960938 40.636719 168.027344 40.648438 C 168.027344 40.648438 168.03125 40.652344 168.03125 40.652344 C 167.570312 40.09375 167.652344 39.960938 167.132812 39.441406 C 167.796875 41.832031 166.078125 46.53125 162.339844 52.308594 C 155.941406 62.199219 145.695312 72.078125 139.5 74.328125 C 138.449219 74.710938 137.558594 74.859375 136.835938 74.777344 C 146.558594 81.898438 159.898438 79.964844 167.808594 70.714844 "/></g><path style=" stroke:none;fill-rule:nonzero;fill:#00bf63;fill-opacity:1;" d="M 161.207031 51.453125 C 154.816406 61.332031 144.628906 71.160156 138.453125 73.402344 C 136.683594 74.046875 135.4375 73.996094 134.707031 73.367188 C 134.457031 73.152344 134.214844 72.929688 133.976562 72.703125 C 134.753906 73 135.847656 72.933594 137.347656 72.386719 C 143.507812 70.148438 153.671875 60.347656 160.046875 50.488281 C 164.332031 43.867188 165.808594 38.800781 164.453125 36.941406 C 164.757812 37.171875 165.054688 37.40625 165.351562 37.660156 C 167.179688 39.21875 165.773438 44.394531 161.207031 51.453125 "/><g clip-rule="nonzero" clip-path="url(#08729ffba9)"><g clip-rule="nonzero" clip-path="url(#7309fa6687)"><g clip-rule="nonzero" clip-path="url(#207a8073c9)"><path style=" stroke:none;fill-rule:nonzero;fill:#00bf63;fill-opacity:1;" d="M 253.511719 102.535156 C 254.628906 111.164062 257.34375 119.253906 261.65625 126.808594 C 264.121094 125.253906 266.445312 123.515625 268.632812 121.59375 C 265.9375 116.859375 263.953125 111.847656 262.683594 106.550781 C 261.414062 101.253906 260.90625 95.886719 261.164062 90.449219 C 261.167969 90.289062 261.179688 90.128906 261.1875 89.96875 C 257.859375 92.40625 255.179688 95.417969 253.148438 99.007812 C 253.238281 100.179688 253.359375 101.355469 253.511719 102.535156 Z M 253.511719 102.535156 "/></g></g></g><g clip-rule="nonzero" clip-path="url(#4058a373cc)"><g clip-rule="nonzero" clip-path="url(#6ea3e4ae36)"><g clip-rule="nonzero" clip-path="url(#f773617c49)"><path style=" stroke:none;fill-rule:nonzero;fill:#00bf63;fill-opacity:1;" d="M 305.972656 109.6875 C 306.109375 109.773438 306.253906 109.867188 306.390625 109.953125 C 305.953125 105.84375 304.675781 102.011719 302.558594 98.460938 C 301.5 97.953125 300.425781 97.46875 299.332031 97.015625 C 291.300781 93.667969 282.9375 91.972656 274.238281 91.933594 C 274.351562 94.84375 274.695312 97.726562 275.269531 100.582031 C 280.714844 100.613281 286.046875 101.40625 291.269531 102.953125 C 296.488281 104.5 301.390625 106.746094 305.972656 109.6875 Z M 305.972656 109.6875 "/></g></g></g><g clip-rule="nonzero" clip-path="url(#b66973ff5b)"><g clip-rule="nonzero" clip-path="url(#ac662fd9e3)"><g clip-rule="nonzero" clip-path="url(#0033b712e8)"><path style=" stroke:none;fill-rule:nonzero;fill:#00bf63;fill-opacity:1;" d="M 272.457031 85.011719 C 269.199219 85.65625 266.148438 86.839844 263.308594 88.558594 C 263.261719 89.222656 263.222656 89.882812 263.203125 90.523438 C 262.957031 95.695312 263.429688 100.804688 264.617188 105.84375 C 265.804688 110.886719 267.660156 115.667969 270.1875 120.1875 C 272.609375 117.933594 274.828125 115.496094 276.84375 112.875 C 275.667969 110.15625 270.9375 98.160156 272.457031 85.011719 Z M 272.457031 85.011719 "/></g></g></g><g clip-rule="nonzero" clip-path="url(#7eda74c1ab)"><g clip-rule="nonzero" clip-path="url(#417b080746)"><g clip-rule="nonzero" clip-path="url(#c5fef6b754)"><path style=" stroke:none;fill-rule:nonzero;fill:#00bf63;fill-opacity:1;" d="M 259.90625 127.855469 C 255.445312 120.058594 252.640625 111.707031 251.492188 102.796875 C 251.480469 102.707031 251.476562 102.617188 251.464844 102.523438 C 251.015625 103.65625 250.644531 104.8125 250.34375 105.988281 C 250.046875 107.167969 249.824219 108.363281 249.679688 109.570312 C 249.53125 110.777344 249.464844 111.988281 249.472656 113.203125 C 249.480469 114.417969 249.566406 115.628906 249.734375 116.835938 C 249.898438 118.039062 250.136719 119.230469 250.453125 120.402344 C 250.769531 121.578125 251.160156 122.726562 251.625 123.851562 C 252.085938 124.976562 252.621094 126.066406 253.222656 127.121094 C 253.828125 128.175781 254.496094 129.191406 255.226562 130.160156 C 256.832031 129.488281 258.394531 128.71875 259.90625 127.855469 Z M 259.90625 127.855469 "/></g></g></g><g clip-rule="nonzero" clip-path="url(#5f72023982)"><g clip-rule="nonzero" clip-path="url(#9e673f9414)"><g clip-rule="nonzero" clip-path="url(#7bb2eae0ca)"><path style=" stroke:none;fill-rule:nonzero;fill:#00bf63;fill-opacity:1;" d="M 256.566406 131.804688 C 258.753906 134.300781 261.296875 136.351562 264.195312 137.964844 C 264.796875 137.667969 265.382812 137.375 265.953125 137.070312 C 270.554688 134.695312 274.742188 131.734375 278.515625 128.183594 C 282.289062 124.636719 285.5 120.636719 288.152344 116.191406 C 284.992188 115.21875 281.769531 114.515625 278.492188 114.082031 C 276.722656 116.457031 268.707031 126.542969 256.566406 131.804688 Z M 256.566406 131.804688 "/></g></g></g><g clip-rule="nonzero" clip-path="url(#914dcf1b9a)"><g clip-rule="nonzero" clip-path="url(#3f7b68277f)"><g clip-rule="nonzero" clip-path="url(#6c6377975a)"><path style=" stroke:none;fill-rule:nonzero;fill:#00bf63;fill-opacity:1;" d="M 274.207031 89.894531 C 283.191406 89.929688 291.824219 91.675781 300.113281 95.132812 C 300.1875 95.164062 300.257812 95.199219 300.328125 95.230469 C 299.574219 94.277344 298.761719 93.378906 297.890625 92.535156 C 297.019531 91.6875 296.097656 90.898438 295.128906 90.167969 C 294.15625 89.441406 293.144531 88.773438 292.089844 88.175781 C 291.03125 87.574219 289.941406 87.046875 288.820312 86.585938 C 287.695312 86.125 286.546875 85.738281 285.375 85.425781 C 284.199219 85.109375 283.011719 84.875 281.808594 84.710938 C 280.605469 84.550781 279.394531 84.464844 278.183594 84.457031 C 276.96875 84.453125 275.757812 84.523438 274.550781 84.667969 C 274.332031 86.402344 274.214844 88.144531 274.207031 89.894531 Z M 274.207031 89.894531 "/></g></g></g><g clip-rule="nonzero" clip-path="url(#3be960b8ff)"><g clip-rule="nonzero" clip-path="url(#98e582fd8e)"><g clip-rule="nonzero" clip-path="url(#646b62db09)"><path style=" stroke:none;fill-rule:nonzero;fill:#00bf63;fill-opacity:1;" d="M 281.203125 139.457031 C 288.117188 134.175781 293.765625 127.777344 298.152344 120.265625 C 295.574219 118.910156 292.90625 117.765625 290.144531 116.832031 C 287.394531 121.53125 284.042969 125.757812 280.09375 129.503906 C 276.140625 133.25 271.746094 136.375 266.90625 138.875 C 266.761719 138.949219 266.613281 139.023438 266.464844 139.101562 C 269.898438 140.625 273.492188 141.4375 277.246094 141.535156 C 277.609375 141.546875 277.964844 141.542969 278.324219 141.539062 C 279.292969 140.871094 280.257812 140.179688 281.203125 139.457031 Z M 281.203125 139.457031 "/></g></g></g><g clip-rule="nonzero" clip-path="url(#7cd0514843)"><g clip-rule="nonzero" clip-path="url(#69dd916ee3)"><g clip-rule="nonzero" clip-path="url(#3251064698)"><path style=" stroke:none;fill-rule:nonzero;fill:#00bf63;fill-opacity:1;" d="M 304.890625 111.414062 C 300.53125 108.617188 295.871094 106.472656 290.914062 104.976562 C 285.953125 103.484375 280.886719 102.703125 275.707031 102.628906 C 276.445312 105.851562 277.449219 108.992188 278.710938 112.050781 C 281.652344 112.394531 294.410156 114.292969 305.042969 122.191406 C 305.972656 119.460938 306.472656 116.652344 306.550781 113.769531 C 306.5625 113.34375 306.558594 112.917969 306.550781 112.496094 C 305.992188 112.121094 305.4375 111.753906 304.890625 111.414062 Z M 304.890625 111.414062 "/></g></g></g><g clip-rule="nonzero" clip-path="url(#4a208707e4)"><g clip-rule="nonzero" clip-path="url(#f768ea2a80)"><g clip-rule="nonzero" clip-path="url(#ffe7cad4c5)"><path style=" stroke:none;fill-rule:nonzero;fill:#00bf63;fill-opacity:1;" d="M 299.933594 121.261719 C 295.410156 129.019531 289.578125 135.625 282.441406 141.074219 C 282.371094 141.128906 282.300781 141.175781 282.230469 141.226562 C 283.433594 141.046875 284.617188 140.789062 285.785156 140.457031 C 286.953125 140.125 288.097656 139.71875 289.214844 139.242188 C 290.332031 138.761719 291.414062 138.214844 292.460938 137.601562 C 293.507812 136.984375 294.511719 136.304688 295.472656 135.5625 C 296.433594 134.816406 297.34375 134.015625 298.199219 133.15625 C 299.058594 132.296875 299.859375 131.386719 300.601562 130.425781 C 301.347656 129.464844 302.023438 128.460938 302.640625 127.410156 C 303.253906 126.363281 303.800781 125.28125 304.277344 124.164062 C 302.890625 123.109375 301.441406 122.140625 299.933594 121.261719 Z M 299.933594 121.261719 "/></g></g></g></g></svg>